<?xml version="1.0" encoding="utf-8"?>
<!-- Generator: Adobe Illustrator 25.0.1, SVG Export Plug-In . SVG Version: 6.00 Build 0)  -->
<svg version="1.1" id="Groupe_117" xmlns="http://www.w3.org/2000/svg" xmlns:xlink="http://www.w3.org/1999/xlink" x="0px" y="0px"
	 viewBox="0 0 960 960" style="enable-background:new 0 0 960 960;" xml:space="preserve">
<style type="text/css">
	.st0{opacity:0.8;}
	.st1{fill:#35E7B3;}
	.st2{opacity:0.7;fill:#F7F9FC;enable-background:new    ;}
	.st3{opacity:0.5;}
	.st4{opacity:0.5;clip-path:url(#SVGID_2_);}
	.st5{fill:#453ECC;}
	.st6{opacity:0.15;fill:#453ECC;}
</style>
<g id="Groupe_1" transform="translate(4724 4939.129) rotate(90)" class="st0">
	<g id="Groupe_97" transform="translate(-4340.129 4462)">
		
			<rect id="Rectangle_86" x="203" y="2" transform="matrix(2.535182e-06 1 -1 2.535182e-06 208.999 -200.9995)" class="st1" width="4" height="4"/>
		
			<rect id="Rectangle_87" x="189" y="2" transform="matrix(2.535182e-06 1 -1 2.535182e-06 194.999 -186.9995)" class="st1" width="4" height="4"/>
		
			<rect id="Rectangle_88" x="174" y="2" transform="matrix(2.535182e-06 1 -1 2.535182e-06 179.9991 -171.9995)" class="st1" width="4" height="4"/>
		
			<rect id="Rectangle_89" x="159" y="2" transform="matrix(2.535182e-06 1 -1 2.535182e-06 164.9992 -156.9996)" class="st1" width="4" height="4"/>
		
			<rect id="Rectangle_90" x="144" y="2" transform="matrix(2.535182e-06 1 -1 2.535182e-06 149.9992 -141.9996)" class="st1" width="4" height="4"/>
		
			<rect id="Rectangle_91" x="129" y="2" transform="matrix(2.535182e-06 1 -1 2.535182e-06 134.9994 -126.9997)" class="st1" width="4" height="4"/>
		
			<rect id="Rectangle_92" x="114" y="2" transform="matrix(2.535182e-06 1 -1 2.535182e-06 119.9994 -111.9997)" class="st1" width="4" height="4"/>
		
			<rect id="Rectangle_93" x="99" y="2" transform="matrix(2.535182e-06 1 -1 2.535182e-06 104.9994 -96.9997)" class="st1" width="4" height="4"/>
		
			<rect id="Rectangle_94" x="85" y="2" transform="matrix(2.535182e-06 1 -1 2.535182e-06 90.9996 -82.9998)" class="st1" width="4" height="4"/>
		
			<rect id="Rectangle_95" x="70" y="2" transform="matrix(2.535182e-06 1 -1 2.535182e-06 75.9996 -67.9998)" class="st1" width="4" height="4"/>
		
			<rect id="Rectangle_96" x="55" y="2" transform="matrix(2.535182e-06 1 -1 2.535182e-06 60.9998 -52.9999)" class="st1" width="4" height="4"/>
		
			<rect id="Rectangle_97" x="40" y="2" transform="matrix(2.535182e-06 1 -1 2.535182e-06 45.9998 -37.9999)" class="st1" width="4" height="4"/>
		
			<rect id="Rectangle_98" x="25" y="2" transform="matrix(2.535182e-06 1 -1 2.535182e-06 30.9998 -22.9999)" class="st1" width="4" height="4"/>
		
			<rect id="Rectangle_99" x="10" y="2" transform="matrix(2.535182e-06 1 -1 2.535182e-06 16 -8)" class="st1" width="4" height="4"/>
	</g>
	<g id="Groupe_106" transform="translate(-4340.129 4522.191)">
		
			<rect id="Rectangle_86-2" x="203" y="1.8" transform="matrix(2.535182e-06 1 -1 2.535182e-06 208.809 -201.1895)" class="st1" width="4" height="4"/>
		
			<rect id="Rectangle_87-2" x="189" y="1.8" transform="matrix(2.535182e-06 1 -1 2.535182e-06 194.809 -187.1895)" class="st1" width="4" height="4"/>
		
			<rect id="Rectangle_88-2" x="174" y="1.8" transform="matrix(2.535182e-06 1 -1 2.535182e-06 179.8091 -172.1895)" class="st1" width="4" height="4"/>
		
			<rect id="Rectangle_89-2" x="159" y="1.8" transform="matrix(2.535182e-06 1 -1 2.535182e-06 164.8092 -157.1896)" class="st1" width="4" height="4"/>
		
			<rect id="Rectangle_90-2" x="144" y="1.8" transform="matrix(2.535182e-06 1 -1 2.535182e-06 149.8092 -142.1896)" class="st1" width="4" height="4"/>
		
			<rect id="Rectangle_91-2" x="129" y="1.8" transform="matrix(2.535182e-06 1 -1 2.535182e-06 134.8094 -127.1897)" class="st1" width="4" height="4"/>
		
			<rect id="Rectangle_92-2" x="114" y="1.8" transform="matrix(2.535182e-06 1 -1 2.535182e-06 119.8094 -112.1897)" class="st1" width="4" height="4"/>
		
			<rect id="Rectangle_93-2" x="99" y="1.8" transform="matrix(2.535182e-06 1 -1 2.535182e-06 104.8094 -97.1897)" class="st1" width="4" height="4"/>
		
			<rect id="Rectangle_94-2" x="85" y="1.8" transform="matrix(2.535182e-06 1 -1 2.535182e-06 90.8096 -83.1898)" class="st1" width="4" height="4"/>
		
			<rect id="Rectangle_95-2" x="70" y="1.8" transform="matrix(2.535182e-06 1 -1 2.535182e-06 75.8096 -68.1898)" class="st1" width="4" height="4"/>
		
			<rect id="Rectangle_96-2" x="55" y="1.8" transform="matrix(2.535182e-06 1 -1 2.535182e-06 60.8098 -53.1899)" class="st1" width="4" height="4"/>
		
			<rect id="Rectangle_97-2" x="40" y="1.8" transform="matrix(2.535182e-06 1 -1 2.535182e-06 45.8098 -38.1899)" class="st1" width="4" height="4"/>
		
			<rect id="Rectangle_98-2" x="25" y="1.8" transform="matrix(2.535182e-06 1 -1 2.535182e-06 30.8098 -23.1899)" class="st1" width="4" height="4"/>
		
			<rect id="Rectangle_99-2" x="10" y="1.8" transform="matrix(2.535182e-06 1 -1 2.535182e-06 15.81 -8.19)" class="st1" width="4" height="4"/>
	</g>
	<g id="Groupe_111" transform="translate(-4340.129 4583.058)">
		
			<rect id="Rectangle_86-3" x="203.5" y="1.4" transform="matrix(2.535182e-06 1 -1 2.535182e-06 208.441 -201.5575)" class="st1" width="3" height="4"/>
		
			<rect id="Rectangle_87-3" x="189.5" y="1.4" transform="matrix(2.535182e-06 1 -1 2.535182e-06 194.441 -187.5575)" class="st1" width="3" height="4"/>
		
			<rect id="Rectangle_88-3" x="174.5" y="1.4" transform="matrix(2.535182e-06 1 -1 2.535182e-06 179.4411 -172.5575)" class="st1" width="3" height="4"/>
		
			<rect id="Rectangle_89-3" x="159.5" y="1.4" transform="matrix(2.535182e-06 1 -1 2.535182e-06 164.4412 -157.5576)" class="st1" width="3" height="4"/>
		
			<rect id="Rectangle_90-3" x="144.5" y="1.4" transform="matrix(2.535182e-06 1 -1 2.535182e-06 149.4412 -142.5576)" class="st1" width="3" height="4"/>
		
			<rect id="Rectangle_91-3" x="129.5" y="1.4" transform="matrix(2.535182e-06 1 -1 2.535182e-06 134.4414 -127.5577)" class="st1" width="3" height="4"/>
		
			<rect id="Rectangle_92-3" x="114.5" y="1.4" transform="matrix(2.535182e-06 1 -1 2.535182e-06 119.4414 -112.5577)" class="st1" width="3" height="4"/>
		
			<rect id="Rectangle_93-3" x="99.5" y="1.4" transform="matrix(2.535182e-06 1 -1 2.535182e-06 104.4415 -97.5577)" class="st1" width="3" height="4"/>
		
			<rect id="Rectangle_94-3" x="85.5" y="1.4" transform="matrix(2.535182e-06 1 -1 2.535182e-06 90.4416 -83.5578)" class="st1" width="3" height="4"/>
		
			<rect id="Rectangle_95-3" x="70.5" y="1.4" transform="matrix(2.535182e-06 1 -1 2.535182e-06 75.4416 -68.5578)" class="st1" width="3" height="4"/>
		
			<rect id="Rectangle_96-3" x="55.5" y="1.4" transform="matrix(2.535182e-06 1 -1 2.535182e-06 60.4418 -53.5579)" class="st1" width="3" height="4"/>
		
			<rect id="Rectangle_97-3" x="40.5" y="1.4" transform="matrix(2.535182e-06 1 -1 2.535182e-06 45.4418 -38.5579)" class="st1" width="3" height="4"/>
		
			<rect id="Rectangle_98-3" x="25.5" y="1.4" transform="matrix(2.535182e-06 1 -1 2.535182e-06 30.4418 -23.5579)" class="st1" width="3" height="4"/>
		
			<rect id="Rectangle_99-3" x="10.5" y="1.4" transform="matrix(2.535182e-06 1 -1 2.535182e-06 15.442 -8.558)" class="st1" width="3" height="4"/>
	</g>
	<g id="Groupe_116" transform="translate(-4340.129 4643.925)">
		
			<rect id="Rectangle_86-4" x="203.5" y="1.6" transform="matrix(2.535182e-06 1 -1 2.535182e-06 208.574 -201.4245)" class="st1" width="3" height="4"/>
		
			<rect id="Rectangle_87-4" x="189.5" y="1.6" transform="matrix(2.535182e-06 1 -1 2.535182e-06 194.574 -187.4245)" class="st1" width="3" height="4"/>
		
			<rect id="Rectangle_88-4" x="174.5" y="1.6" transform="matrix(2.535182e-06 1 -1 2.535182e-06 179.5741 -172.4245)" class="st1" width="3" height="4"/>
		
			<rect id="Rectangle_89-4" x="159.5" y="1.6" transform="matrix(2.535182e-06 1 -1 2.535182e-06 164.5742 -157.4246)" class="st1" width="3" height="4"/>
		
			<rect id="Rectangle_90-4" x="144.5" y="1.6" transform="matrix(2.535182e-06 1 -1 2.535182e-06 149.5742 -142.4246)" class="st1" width="3" height="4"/>
		
			<rect id="Rectangle_91-4" x="129.5" y="1.6" transform="matrix(2.535182e-06 1 -1 2.535182e-06 134.5744 -127.4247)" class="st1" width="3" height="4"/>
		
			<rect id="Rectangle_92-4" x="114.5" y="1.6" transform="matrix(2.535182e-06 1 -1 2.535182e-06 119.5744 -112.4247)" class="st1" width="3" height="4"/>
		
			<rect id="Rectangle_93-4" x="99.5" y="1.6" transform="matrix(2.535182e-06 1 -1 2.535182e-06 104.5744 -97.4247)" class="st1" width="3" height="4"/>
		
			<rect id="Rectangle_94-4" x="85.5" y="1.6" transform="matrix(2.535182e-06 1 -1 2.535182e-06 90.5746 -83.4248)" class="st1" width="3" height="4"/>
		
			<rect id="Rectangle_95-4" x="70.5" y="1.6" transform="matrix(2.535182e-06 1 -1 2.535182e-06 75.5746 -68.4248)" class="st1" width="3" height="4"/>
		
			<rect id="Rectangle_96-4" x="55.5" y="1.6" transform="matrix(2.535182e-06 1 -1 2.535182e-06 60.5747 -53.4248)" class="st1" width="3" height="4"/>
		
			<rect id="Rectangle_97-4" x="40.5" y="1.6" transform="matrix(2.535182e-06 1 -1 2.535182e-06 45.5748 -38.4249)" class="st1" width="3" height="4"/>
		
			<rect id="Rectangle_98-4" x="25.5" y="1.6" transform="matrix(2.535182e-06 1 -1 2.535182e-06 30.5748 -23.4249)" class="st1" width="3" height="4"/>
		
			<rect id="Rectangle_99-4" x="10.5" y="1.6" transform="matrix(2.535182e-06 1 -1 2.535182e-06 15.575 -8.425)" class="st1" width="3" height="4"/>
	</g>
	<g id="Groupe_98" transform="translate(-4340.129 4474.173)">
		
			<rect id="Rectangle_86-5" x="203" y="1.8" transform="matrix(2.535182e-06 1 -1 2.535182e-06 208.826 -201.1725)" class="st1" width="4" height="4"/>
		
			<rect id="Rectangle_87-5" x="189" y="1.8" transform="matrix(2.535182e-06 1 -1 2.535182e-06 194.826 -187.1725)" class="st1" width="4" height="4"/>
		
			<rect id="Rectangle_88-5" x="174" y="1.8" transform="matrix(2.535182e-06 1 -1 2.535182e-06 179.8261 -172.1726)" class="st1" width="4" height="4"/>
		
			<rect id="Rectangle_89-5" x="159" y="1.8" transform="matrix(2.535182e-06 1 -1 2.535182e-06 164.8262 -157.1726)" class="st1" width="4" height="4"/>
		
			<rect id="Rectangle_90-5" x="144" y="1.8" transform="matrix(2.535182e-06 1 -1 2.535182e-06 149.8262 -142.1726)" class="st1" width="4" height="4"/>
		
			<rect id="Rectangle_91-5" x="129" y="1.8" transform="matrix(2.535182e-06 1 -1 2.535182e-06 134.8264 -127.1727)" class="st1" width="4" height="4"/>
		
			<rect id="Rectangle_92-5" x="114" y="1.8" transform="matrix(2.535182e-06 1 -1 2.535182e-06 119.8264 -112.1727)" class="st1" width="4" height="4"/>
		
			<rect id="Rectangle_93-5" x="99" y="1.8" transform="matrix(2.535182e-06 1 -1 2.535182e-06 104.8264 -97.1727)" class="st1" width="4" height="4"/>
		
			<rect id="Rectangle_94-5" x="85" y="1.8" transform="matrix(2.535182e-06 1 -1 2.535182e-06 90.8266 -83.1728)" class="st1" width="4" height="4"/>
		
			<rect id="Rectangle_95-5" x="70" y="1.8" transform="matrix(2.535182e-06 1 -1 2.535182e-06 75.8266 -68.1728)" class="st1" width="4" height="4"/>
		
			<rect id="Rectangle_96-5" x="55" y="1.8" transform="matrix(2.535182e-06 1 -1 2.535182e-06 60.8268 -53.1729)" class="st1" width="4" height="4"/>
		
			<rect id="Rectangle_97-5" x="40" y="1.8" transform="matrix(2.535182e-06 1 -1 2.535182e-06 45.8268 -38.1729)" class="st1" width="4" height="4"/>
		
			<rect id="Rectangle_98-5" x="25" y="1.8" transform="matrix(2.535182e-06 1 -1 2.535182e-06 30.8268 -23.1729)" class="st1" width="4" height="4"/>
		
			<rect id="Rectangle_99-5" x="10" y="1.8" transform="matrix(2.535182e-06 1 -1 2.535182e-06 15.827 -8.173)" class="st1" width="4" height="4"/>
	</g>
	<g id="Groupe_105" transform="translate(-4340.129 4535.041)">
		
			<rect id="Rectangle_86-6" x="203.5" y="1.5" transform="matrix(2.535182e-06 1 -1 2.535182e-06 208.459 -201.5395)" class="st1" width="3" height="4"/>
		
			<rect id="Rectangle_87-6" x="189.5" y="1.5" transform="matrix(2.535182e-06 1 -1 2.535182e-06 194.459 -187.5395)" class="st1" width="3" height="4"/>
		
			<rect id="Rectangle_88-6" x="174.5" y="1.5" transform="matrix(2.535182e-06 1 -1 2.535182e-06 179.4591 -172.5395)" class="st1" width="3" height="4"/>
		
			<rect id="Rectangle_89-6" x="159.5" y="1.5" transform="matrix(2.535182e-06 1 -1 2.535182e-06 164.4592 -157.5396)" class="st1" width="3" height="4"/>
		
			<rect id="Rectangle_90-6" x="144.5" y="1.5" transform="matrix(2.535182e-06 1 -1 2.535182e-06 149.4592 -142.5396)" class="st1" width="3" height="4"/>
		
			<rect id="Rectangle_91-6" x="129.5" y="1.5" transform="matrix(2.535182e-06 1 -1 2.535182e-06 134.4594 -127.5397)" class="st1" width="3" height="4"/>
		
			<rect id="Rectangle_92-6" x="114.5" y="1.5" transform="matrix(2.535182e-06 1 -1 2.535182e-06 119.4594 -112.5397)" class="st1" width="3" height="4"/>
		
			<rect id="Rectangle_93-6" x="99.5" y="1.5" transform="matrix(2.535182e-06 1 -1 2.535182e-06 104.4594 -97.5397)" class="st1" width="3" height="4"/>
		
			<rect id="Rectangle_94-6" x="85.5" y="1.5" transform="matrix(2.535182e-06 1 -1 2.535182e-06 90.4596 -83.5398)" class="st1" width="3" height="4"/>
		
			<rect id="Rectangle_95-6" x="70.5" y="1.5" transform="matrix(2.535182e-06 1 -1 2.535182e-06 75.4596 -68.5398)" class="st1" width="3" height="4"/>
		
			<rect id="Rectangle_96-6" x="55.5" y="1.5" transform="matrix(2.535182e-06 1 -1 2.535182e-06 60.4598 -53.5399)" class="st1" width="3" height="4"/>
		
			<rect id="Rectangle_97-6" x="40.5" y="1.5" transform="matrix(2.535182e-06 1 -1 2.535182e-06 45.4598 -38.5399)" class="st1" width="3" height="4"/>
		
			<rect id="Rectangle_98-6" x="25.5" y="1.5" transform="matrix(2.535182e-06 1 -1 2.535182e-06 30.4598 -23.5399)" class="st1" width="3" height="4"/>
		
			<rect id="Rectangle_99-6" x="10.5" y="1.5" transform="matrix(2.535182e-06 1 -1 2.535182e-06 15.46 -8.54)" class="st1" width="3" height="4"/>
	</g>
	<g id="Groupe_110" transform="translate(-4340.129 4595.231)">
		
			<rect id="Rectangle_86-7" x="203" y="1.8" transform="matrix(2.535182e-06 1 -1 2.535182e-06 208.768 -201.2305)" class="st1" width="4" height="4"/>
		
			<rect id="Rectangle_87-7" x="189" y="1.8" transform="matrix(2.535182e-06 1 -1 2.535182e-06 194.768 -187.2305)" class="st1" width="4" height="4"/>
		
			<rect id="Rectangle_88-7" x="174" y="1.8" transform="matrix(2.535182e-06 1 -1 2.535182e-06 179.7682 -172.2306)" class="st1" width="4" height="4"/>
		
			<rect id="Rectangle_89-7" x="159" y="1.8" transform="matrix(2.535182e-06 1 -1 2.535182e-06 164.7682 -157.2306)" class="st1" width="4" height="4"/>
		
			<rect id="Rectangle_90-7" x="144" y="1.8" transform="matrix(2.535182e-06 1 -1 2.535182e-06 149.7682 -142.2306)" class="st1" width="4" height="4"/>
		
			<rect id="Rectangle_91-7" x="129" y="1.8" transform="matrix(2.535182e-06 1 -1 2.535182e-06 134.7684 -127.2307)" class="st1" width="4" height="4"/>
		
			<rect id="Rectangle_92-7" x="114" y="1.8" transform="matrix(2.535182e-06 1 -1 2.535182e-06 119.7684 -112.2307)" class="st1" width="4" height="4"/>
		
			<rect id="Rectangle_93-7" x="99" y="1.8" transform="matrix(2.535182e-06 1 -1 2.535182e-06 104.7684 -97.2307)" class="st1" width="4" height="4"/>
		
			<rect id="Rectangle_94-7" x="85" y="1.8" transform="matrix(2.535182e-06 1 -1 2.535182e-06 90.7686 -83.2308)" class="st1" width="4" height="4"/>
		
			<rect id="Rectangle_95-7" x="70" y="1.8" transform="matrix(2.535182e-06 1 -1 2.535182e-06 75.7686 -68.2308)" class="st1" width="4" height="4"/>
		
			<rect id="Rectangle_96-7" x="55" y="1.8" transform="matrix(2.535182e-06 1 -1 2.535182e-06 60.7688 -53.2309)" class="st1" width="4" height="4"/>
		
			<rect id="Rectangle_97-7" x="40" y="1.8" transform="matrix(2.535182e-06 1 -1 2.535182e-06 45.7688 -38.2309)" class="st1" width="4" height="4"/>
		
			<rect id="Rectangle_98-7" x="25" y="1.8" transform="matrix(2.535182e-06 1 -1 2.535182e-06 30.7688 -23.2309)" class="st1" width="4" height="4"/>
		
			<rect id="Rectangle_99-7" x="10" y="1.8" transform="matrix(2.535182e-06 1 -1 2.535182e-06 15.769 -8.231)" class="st1" width="4" height="4"/>
	</g>
	<g id="Groupe_115" transform="translate(-4340.129 4655.422)">
		
			<rect id="Rectangle_86-8" x="203" y="1.6" transform="matrix(2.535182e-06 1 -1 2.535182e-06 208.577 -201.4215)" class="st1" width="4" height="4"/>
		
			<rect id="Rectangle_87-8" x="189" y="1.6" transform="matrix(2.535182e-06 1 -1 2.535182e-06 194.577 -187.4215)" class="st1" width="4" height="4"/>
		
			<rect id="Rectangle_88-8" x="174" y="1.6" transform="matrix(2.535182e-06 1 -1 2.535182e-06 179.5771 -172.4215)" class="st1" width="4" height="4"/>
		
			<rect id="Rectangle_89-8" x="159" y="1.6" transform="matrix(2.535182e-06 1 -1 2.535182e-06 164.5772 -157.4216)" class="st1" width="4" height="4"/>
		
			<rect id="Rectangle_90-8" x="144" y="1.6" transform="matrix(2.535182e-06 1 -1 2.535182e-06 149.5772 -142.4216)" class="st1" width="4" height="4"/>
		
			<rect id="Rectangle_91-8" x="129" y="1.6" transform="matrix(2.535182e-06 1 -1 2.535182e-06 134.5774 -127.4217)" class="st1" width="4" height="4"/>
		
			<rect id="Rectangle_92-8" x="114" y="1.6" transform="matrix(2.535182e-06 1 -1 2.535182e-06 119.5774 -112.4217)" class="st1" width="4" height="4"/>
		
			<rect id="Rectangle_93-8" x="99" y="1.6" transform="matrix(2.535182e-06 1 -1 2.535182e-06 104.5774 -97.4217)" class="st1" width="4" height="4"/>
		
			<rect id="Rectangle_94-8" x="85" y="1.6" transform="matrix(2.535182e-06 1 -1 2.535182e-06 90.5776 -83.4218)" class="st1" width="4" height="4"/>
		
			<rect id="Rectangle_95-8" x="70" y="1.6" transform="matrix(2.535182e-06 1 -1 2.535182e-06 75.5776 -68.4218)" class="st1" width="4" height="4"/>
		
			<rect id="Rectangle_96-8" x="55" y="1.6" transform="matrix(2.535182e-06 1 -1 2.535182e-06 60.5778 -53.4219)" class="st1" width="4" height="4"/>
		
			<rect id="Rectangle_97-8" x="40" y="1.6" transform="matrix(2.535182e-06 1 -1 2.535182e-06 45.5778 -38.4219)" class="st1" width="4" height="4"/>
		
			<rect id="Rectangle_98-8" x="25" y="1.6" transform="matrix(2.535182e-06 1 -1 2.535182e-06 30.5778 -23.4219)" class="st1" width="4" height="4"/>
		
			<rect id="Rectangle_99-8" x="10" y="1.6" transform="matrix(2.535182e-06 1 -1 2.535182e-06 15.578 -8.422)" class="st1" width="4" height="4"/>
	</g>
	<g id="Groupe_99" transform="translate(-4340.129 4486.347)">
		
			<rect id="Rectangle_86-9" x="203" y="1.7" transform="matrix(2.535182e-06 1 -1 2.535182e-06 208.653 -201.3455)" class="st1" width="4" height="4"/>
		
			<rect id="Rectangle_87-9" x="189" y="1.7" transform="matrix(2.535182e-06 1 -1 2.535182e-06 194.653 -187.3455)" class="st1" width="4" height="4"/>
		
			<rect id="Rectangle_88-9" x="174" y="1.7" transform="matrix(2.535182e-06 1 -1 2.535182e-06 179.6531 -172.3455)" class="st1" width="4" height="4"/>
		
			<rect id="Rectangle_89-9" x="159" y="1.7" transform="matrix(2.535182e-06 1 -1 2.535182e-06 164.6532 -157.3456)" class="st1" width="4" height="4"/>
		
			<rect id="Rectangle_90-9" x="144" y="1.7" transform="matrix(2.535182e-06 1 -1 2.535182e-06 149.6532 -142.3456)" class="st1" width="4" height="4"/>
		
			<rect id="Rectangle_91-9" x="129" y="1.7" transform="matrix(2.535182e-06 1 -1 2.535182e-06 134.6534 -127.3457)" class="st1" width="4" height="4"/>
		
			<rect id="Rectangle_92-9" x="114" y="1.7" transform="matrix(2.535182e-06 1 -1 2.535182e-06 119.6534 -112.3457)" class="st1" width="4" height="4"/>
		
			<rect id="Rectangle_93-9" x="99" y="1.7" transform="matrix(2.535182e-06 1 -1 2.535182e-06 104.6534 -97.3457)" class="st1" width="4" height="4"/>
		
			<rect id="Rectangle_94-9" x="85" y="1.7" transform="matrix(2.535182e-06 1 -1 2.535182e-06 90.6536 -83.3458)" class="st1" width="4" height="4"/>
		
			<rect id="Rectangle_95-9" x="70" y="1.7" transform="matrix(2.535182e-06 1 -1 2.535182e-06 75.6536 -68.3458)" class="st1" width="4" height="4"/>
		
			<rect id="Rectangle_96-9" x="55" y="1.7" transform="matrix(2.535182e-06 1 -1 2.535182e-06 60.6538 -53.3459)" class="st1" width="4" height="4"/>
		
			<rect id="Rectangle_97-9" x="40" y="1.7" transform="matrix(2.535182e-06 1 -1 2.535182e-06 45.6538 -38.3459)" class="st1" width="4" height="4"/>
		
			<rect id="Rectangle_98-9" x="25" y="1.7" transform="matrix(2.535182e-06 1 -1 2.535182e-06 30.6538 -23.3459)" class="st1" width="4" height="4"/>
		
			<rect id="Rectangle_99-9" x="10" y="1.7" transform="matrix(2.535182e-06 1 -1 2.535182e-06 15.654 -8.346)" class="st1" width="4" height="4"/>
	</g>
	<g id="Groupe_104" transform="translate(-4340.129 4547.214)">
		
			<rect id="Rectangle_86-10" x="203" y="1.8" transform="matrix(2.535182e-06 1 -1 2.535182e-06 208.786 -201.2125)" class="st1" width="4" height="4"/>
		
			<rect id="Rectangle_87-10" x="189" y="1.8" transform="matrix(2.535182e-06 1 -1 2.535182e-06 194.786 -187.2125)" class="st1" width="4" height="4"/>
		
			<rect id="Rectangle_88-10" x="174" y="1.8" transform="matrix(2.535182e-06 1 -1 2.535182e-06 179.7861 -172.2125)" class="st1" width="4" height="4"/>
		
			<rect id="Rectangle_89-10" x="159" y="1.8" transform="matrix(2.535182e-06 1 -1 2.535182e-06 164.7862 -157.2126)" class="st1" width="4" height="4"/>
		
			<rect id="Rectangle_90-10" x="144" y="1.8" transform="matrix(2.535182e-06 1 -1 2.535182e-06 149.7862 -142.2126)" class="st1" width="4" height="4"/>
		
			<rect id="Rectangle_91-10" x="129" y="1.8" transform="matrix(2.535182e-06 1 -1 2.535182e-06 134.7864 -127.2127)" class="st1" width="4" height="4"/>
		
			<rect id="Rectangle_92-10" x="114" y="1.8" transform="matrix(2.535182e-06 1 -1 2.535182e-06 119.7864 -112.2127)" class="st1" width="4" height="4"/>
		
			<rect id="Rectangle_93-10" x="99" y="1.8" transform="matrix(2.535182e-06 1 -1 2.535182e-06 104.7864 -97.2127)" class="st1" width="4" height="4"/>
		
			<rect id="Rectangle_94-10" x="85" y="1.8" transform="matrix(2.535182e-06 1 -1 2.535182e-06 90.7866 -83.2128)" class="st1" width="4" height="4"/>
		
			<rect id="Rectangle_95-10" x="70" y="1.8" transform="matrix(2.535182e-06 1 -1 2.535182e-06 75.7866 -68.2128)" class="st1" width="4" height="4"/>
		
			<rect id="Rectangle_96-10" x="55" y="1.8" transform="matrix(2.535182e-06 1 -1 2.535182e-06 60.7868 -53.2129)" class="st1" width="4" height="4"/>
		
			<rect id="Rectangle_97-10" x="40" y="1.8" transform="matrix(2.535182e-06 1 -1 2.535182e-06 45.7868 -38.2129)" class="st1" width="4" height="4"/>
		
			<rect id="Rectangle_98-10" x="25" y="1.8" transform="matrix(2.535182e-06 1 -1 2.535182e-06 30.7868 -23.2129)" class="st1" width="4" height="4"/>
		
			<rect id="Rectangle_99-10" x="10" y="1.8" transform="matrix(2.535182e-06 1 -1 2.535182e-06 15.787 -8.213)" class="st1" width="4" height="4"/>
	</g>
	<g id="Groupe_109" transform="translate(-4340.129 4607.405)">
		
			<rect id="Rectangle_86-11" x="203" y="1.6" transform="matrix(2.535182e-06 1 -1 2.535182e-06 208.595 -201.4035)" class="st1" width="4" height="4"/>
		
			<rect id="Rectangle_87-11" x="189" y="1.6" transform="matrix(2.535182e-06 1 -1 2.535182e-06 194.595 -187.4035)" class="st1" width="4" height="4"/>
		
			<rect id="Rectangle_88-11" x="174" y="1.6" transform="matrix(2.535182e-06 1 -1 2.535182e-06 179.5951 -172.4036)" class="st1" width="4" height="4"/>
		
			<rect id="Rectangle_89-11" x="159" y="1.6" transform="matrix(2.535182e-06 1 -1 2.535182e-06 164.5952 -157.4036)" class="st1" width="4" height="4"/>
		
			<rect id="Rectangle_90-11" x="144" y="1.6" transform="matrix(2.535182e-06 1 -1 2.535182e-06 149.5952 -142.4036)" class="st1" width="4" height="4"/>
		
			<rect id="Rectangle_91-11" x="129" y="1.6" transform="matrix(2.535182e-06 1 -1 2.535182e-06 134.5954 -127.4037)" class="st1" width="4" height="4"/>
		
			<rect id="Rectangle_92-11" x="114" y="1.6" transform="matrix(2.535182e-06 1 -1 2.535182e-06 119.5954 -112.4037)" class="st1" width="4" height="4"/>
		
			<rect id="Rectangle_93-11" x="99" y="1.6" transform="matrix(2.535182e-06 1 -1 2.535182e-06 104.5955 -97.4037)" class="st1" width="4" height="4"/>
		
			<rect id="Rectangle_94-11" x="85" y="1.6" transform="matrix(2.535182e-06 1 -1 2.535182e-06 90.5956 -83.4038)" class="st1" width="4" height="4"/>
		
			<rect id="Rectangle_95-11" x="70" y="1.6" transform="matrix(2.535182e-06 1 -1 2.535182e-06 75.5956 -68.4038)" class="st1" width="4" height="4"/>
		
			<rect id="Rectangle_96-11" x="55" y="1.6" transform="matrix(2.535182e-06 1 -1 2.535182e-06 60.5958 -53.4039)" class="st1" width="4" height="4"/>
		
			<rect id="Rectangle_97-11" x="40" y="1.6" transform="matrix(2.535182e-06 1 -1 2.535182e-06 45.5958 -38.4039)" class="st1" width="4" height="4"/>
		
			<rect id="Rectangle_98-11" x="25" y="1.6" transform="matrix(2.535182e-06 1 -1 2.535182e-06 30.5958 -23.4039)" class="st1" width="4" height="4"/>
		
			<rect id="Rectangle_99-11" x="10" y="1.6" transform="matrix(2.535182e-06 1 -1 2.535182e-06 15.596 -8.404)" class="st1" width="4" height="4"/>
	</g>
	<g id="Groupe_114" transform="translate(-4340.129 4667.596)">
		
			<rect id="Rectangle_86-12" x="203" y="2.4" transform="matrix(2.535182e-06 1 -1 2.535182e-06 209.404 -200.5945)" class="st1" width="4" height="4"/>
		
			<rect id="Rectangle_87-12" x="189" y="2.4" transform="matrix(2.535182e-06 1 -1 2.535182e-06 195.404 -186.5945)" class="st1" width="4" height="4"/>
		
			<rect id="Rectangle_88-12" x="174" y="2.4" transform="matrix(2.535182e-06 1 -1 2.535182e-06 180.4041 -171.5945)" class="st1" width="4" height="4"/>
		
			<rect id="Rectangle_89-12" x="159" y="2.4" transform="matrix(2.535182e-06 1 -1 2.535182e-06 165.4042 -156.5946)" class="st1" width="4" height="4"/>
		
			<rect id="Rectangle_90-12" x="144" y="2.4" transform="matrix(2.535182e-06 1 -1 2.535182e-06 150.4042 -141.5946)" class="st1" width="4" height="4"/>
		
			<rect id="Rectangle_91-12" x="129" y="2.4" transform="matrix(2.535182e-06 1 -1 2.535182e-06 135.4044 -126.5947)" class="st1" width="4" height="4"/>
		
			<rect id="Rectangle_92-12" x="114" y="2.4" transform="matrix(2.535182e-06 1 -1 2.535182e-06 120.4044 -111.5947)" class="st1" width="4" height="4"/>
		
			<rect id="Rectangle_93-12" x="99" y="2.4" transform="matrix(2.535182e-06 1 -1 2.535182e-06 105.4044 -96.5947)" class="st1" width="4" height="4"/>
		
			<rect id="Rectangle_94-12" x="85" y="2.4" transform="matrix(2.535182e-06 1 -1 2.535182e-06 91.4046 -82.5948)" class="st1" width="4" height="4"/>
		
			<rect id="Rectangle_95-12" x="70" y="2.4" transform="matrix(2.535182e-06 1 -1 2.535182e-06 76.4046 -67.5948)" class="st1" width="4" height="4"/>
		
			<rect id="Rectangle_96-12" x="55" y="2.4" transform="matrix(2.535182e-06 1 -1 2.535182e-06 61.4048 -52.5949)" class="st1" width="4" height="4"/>
		
			<rect id="Rectangle_97-12" x="40" y="2.4" transform="matrix(2.535182e-06 1 -1 2.535182e-06 46.4048 -37.5949)" class="st1" width="4" height="4"/>
		
			<rect id="Rectangle_98-12" x="25" y="2.4" transform="matrix(2.535182e-06 1 -1 2.535182e-06 31.4048 -22.5949)" class="st1" width="4" height="4"/>
		
			<rect id="Rectangle_99-12" x="10" y="2.4" transform="matrix(2.535182e-06 1 -1 2.535182e-06 16.405 -7.595)" class="st1" width="4" height="4"/>
	</g>
	<g id="Groupe_100" transform="translate(-4340.129 4498.521)">
		
			<rect id="Rectangle_86-13" x="203" y="2.5" transform="matrix(2.535182e-06 1 -1 2.535182e-06 209.479 -200.5195)" class="st1" width="4" height="4"/>
		
			<rect id="Rectangle_87-13" x="189" y="2.5" transform="matrix(2.535182e-06 1 -1 2.535182e-06 195.479 -186.5195)" class="st1" width="4" height="4"/>
		
			<rect id="Rectangle_88-13" x="174" y="2.5" transform="matrix(2.535182e-06 1 -1 2.535182e-06 180.4791 -171.5196)" class="st1" width="4" height="4"/>
		
			<rect id="Rectangle_89-13" x="159" y="2.5" transform="matrix(2.535182e-06 1 -1 2.535182e-06 165.4792 -156.5196)" class="st1" width="4" height="4"/>
		
			<rect id="Rectangle_90-13" x="144" y="2.5" transform="matrix(2.535182e-06 1 -1 2.535182e-06 150.4792 -141.5196)" class="st1" width="4" height="4"/>
		
			<rect id="Rectangle_91-13" x="129" y="2.5" transform="matrix(2.535182e-06 1 -1 2.535182e-06 135.4794 -126.5197)" class="st1" width="4" height="4"/>
		
			<rect id="Rectangle_92-13" x="114" y="2.5" transform="matrix(2.535182e-06 1 -1 2.535182e-06 120.4794 -111.5197)" class="st1" width="4" height="4"/>
		
			<rect id="Rectangle_93-13" x="99" y="2.5" transform="matrix(2.535182e-06 1 -1 2.535182e-06 105.4794 -96.5197)" class="st1" width="4" height="4"/>
		
			<rect id="Rectangle_94-13" x="85" y="2.5" transform="matrix(2.535182e-06 1 -1 2.535182e-06 91.4796 -82.5198)" class="st1" width="4" height="4"/>
		
			<rect id="Rectangle_95-13" x="70" y="2.5" transform="matrix(2.535182e-06 1 -1 2.535182e-06 76.4796 -67.5198)" class="st1" width="4" height="4"/>
		
			<rect id="Rectangle_96-13" x="55" y="2.5" transform="matrix(2.535182e-06 1 -1 2.535182e-06 61.4798 -52.5199)" class="st1" width="4" height="4"/>
		
			<rect id="Rectangle_97-13" x="40" y="2.5" transform="matrix(2.535182e-06 1 -1 2.535182e-06 46.4798 -37.5199)" class="st1" width="4" height="4"/>
		
			<rect id="Rectangle_98-13" x="25" y="2.5" transform="matrix(2.535182e-06 1 -1 2.535182e-06 31.4798 -22.5199)" class="st1" width="4" height="4"/>
		
			<rect id="Rectangle_99-13" x="10" y="2.5" transform="matrix(2.535182e-06 1 -1 2.535182e-06 16.48 -7.52)" class="st1" width="4" height="4"/>
	</g>
	<g id="Groupe_103" transform="translate(-4340.129 4558.711)">
		
			<rect id="Rectangle_86-14" x="203" y="2.3" transform="matrix(2.535182e-06 1 -1 2.535182e-06 209.288 -200.7105)" class="st1" width="4" height="4"/>
		
			<rect id="Rectangle_87-14" x="189" y="2.3" transform="matrix(2.535182e-06 1 -1 2.535182e-06 195.288 -186.7105)" class="st1" width="4" height="4"/>
		
			<rect id="Rectangle_88-14" x="174" y="2.3" transform="matrix(2.535182e-06 1 -1 2.535182e-06 180.2881 -171.7105)" class="st1" width="4" height="4"/>
		
			<rect id="Rectangle_89-14" x="159" y="2.3" transform="matrix(2.535182e-06 1 -1 2.535182e-06 165.2882 -156.7106)" class="st1" width="4" height="4"/>
		
			<rect id="Rectangle_90-14" x="144" y="2.3" transform="matrix(2.535182e-06 1 -1 2.535182e-06 150.2882 -141.7106)" class="st1" width="4" height="4"/>
		
			<rect id="Rectangle_91-14" x="129" y="2.3" transform="matrix(2.535182e-06 1 -1 2.535182e-06 135.2884 -126.7107)" class="st1" width="4" height="4"/>
		
			<rect id="Rectangle_92-14" x="114" y="2.3" transform="matrix(2.535182e-06 1 -1 2.535182e-06 120.2884 -111.7107)" class="st1" width="4" height="4"/>
		
			<rect id="Rectangle_93-14" x="99" y="2.3" transform="matrix(2.535182e-06 1 -1 2.535182e-06 105.2884 -96.7107)" class="st1" width="4" height="4"/>
		
			<rect id="Rectangle_94-14" x="85" y="2.3" transform="matrix(2.535182e-06 1 -1 2.535182e-06 91.2886 -82.7108)" class="st1" width="4" height="4"/>
		
			<rect id="Rectangle_95-14" x="70" y="2.3" transform="matrix(2.535182e-06 1 -1 2.535182e-06 76.2886 -67.7108)" class="st1" width="4" height="4"/>
		
			<rect id="Rectangle_96-14" x="55" y="2.3" transform="matrix(2.535182e-06 1 -1 2.535182e-06 61.2888 -52.7109)" class="st1" width="4" height="4"/>
		
			<rect id="Rectangle_97-14" x="40" y="2.3" transform="matrix(2.535182e-06 1 -1 2.535182e-06 46.2888 -37.7109)" class="st1" width="4" height="4"/>
		
			<rect id="Rectangle_98-14" x="25" y="2.3" transform="matrix(2.535182e-06 1 -1 2.535182e-06 31.2888 -22.7109)" class="st1" width="4" height="4"/>
		
			<rect id="Rectangle_99-14" x="10" y="2.3" transform="matrix(2.535182e-06 1 -1 2.535182e-06 16.289 -7.711)" class="st1" width="4" height="4"/>
	</g>
	<g id="Groupe_108" transform="translate(-4340.129 4619.578)">
		
			<rect id="Rectangle_86-15" x="203.5" y="1.9" transform="matrix(2.535182e-06 1 -1 2.535182e-06 208.921 -201.0775)" class="st1" width="3" height="4"/>
		
			<rect id="Rectangle_87-15" x="189.5" y="1.9" transform="matrix(2.535182e-06 1 -1 2.535182e-06 194.921 -187.0775)" class="st1" width="3" height="4"/>
		
			<rect id="Rectangle_88-15" x="174.5" y="1.9" transform="matrix(2.535182e-06 1 -1 2.535182e-06 179.9211 -172.0775)" class="st1" width="3" height="4"/>
		
			<rect id="Rectangle_89-15" x="159.5" y="1.9" transform="matrix(2.535182e-06 1 -1 2.535182e-06 164.9212 -157.0776)" class="st1" width="3" height="4"/>
		
			<rect id="Rectangle_90-15" x="144.5" y="1.9" transform="matrix(2.535182e-06 1 -1 2.535182e-06 149.9212 -142.0776)" class="st1" width="3" height="4"/>
		
			<rect id="Rectangle_91-15" x="129.5" y="1.9" transform="matrix(2.535182e-06 1 -1 2.535182e-06 134.9214 -127.0777)" class="st1" width="3" height="4"/>
		
			<rect id="Rectangle_92-15" x="114.5" y="1.9" transform="matrix(2.535182e-06 1 -1 2.535182e-06 119.9214 -112.0777)" class="st1" width="3" height="4"/>
		
			<rect id="Rectangle_93-15" x="99.5" y="1.9" transform="matrix(2.535182e-06 1 -1 2.535182e-06 104.9214 -97.0777)" class="st1" width="3" height="4"/>
		
			<rect id="Rectangle_94-15" x="85.5" y="1.9" transform="matrix(2.535182e-06 1 -1 2.535182e-06 90.9216 -83.0778)" class="st1" width="3" height="4"/>
		
			<rect id="Rectangle_95-15" x="70.5" y="1.9" transform="matrix(2.535182e-06 1 -1 2.535182e-06 75.9216 -68.0778)" class="st1" width="3" height="4"/>
		
			<rect id="Rectangle_96-15" x="55.5" y="1.9" transform="matrix(2.535182e-06 1 -1 2.535182e-06 60.9217 -53.0778)" class="st1" width="3" height="4"/>
		
			<rect id="Rectangle_97-15" x="40.5" y="1.9" transform="matrix(2.535182e-06 1 -1 2.535182e-06 45.9218 -38.0779)" class="st1" width="3" height="4"/>
		
			<rect id="Rectangle_98-15" x="25.5" y="1.9" transform="matrix(2.535182e-06 1 -1 2.535182e-06 30.9218 -23.0779)" class="st1" width="3" height="4"/>
		
			<rect id="Rectangle_99-15" x="10.5" y="1.9" transform="matrix(2.535182e-06 1 -1 2.535182e-06 15.922 -8.078)" class="st1" width="3" height="4"/>
	</g>
	<g id="Groupe_113" transform="translate(-4340.129 4680.445)">
		
			<rect id="Rectangle_86-16" x="203" y="1.6" transform="matrix(2.535182e-06 1 -1 2.535182e-06 208.554 -201.4445)" class="st1" width="4" height="4"/>
		
			<rect id="Rectangle_87-16" x="189" y="1.6" transform="matrix(2.535182e-06 1 -1 2.535182e-06 194.554 -187.4445)" class="st1" width="4" height="4"/>
		
			<rect id="Rectangle_88-16" x="174" y="1.6" transform="matrix(2.535182e-06 1 -1 2.535182e-06 179.554 -172.4445)" class="st1" width="4" height="4"/>
		
			<rect id="Rectangle_89-16" x="159" y="1.6" transform="matrix(2.535182e-06 1 -1 2.535182e-06 164.5542 -157.4446)" class="st1" width="4" height="4"/>
		
			<rect id="Rectangle_90-16" x="144" y="1.6" transform="matrix(2.535182e-06 1 -1 2.535182e-06 149.5542 -142.4446)" class="st1" width="4" height="4"/>
		
			<rect id="Rectangle_91-16" x="129" y="1.6" transform="matrix(2.535182e-06 1 -1 2.535182e-06 134.5544 -127.4447)" class="st1" width="4" height="4"/>
		
			<rect id="Rectangle_92-16" x="114" y="1.6" transform="matrix(2.535182e-06 1 -1 2.535182e-06 119.5544 -112.4447)" class="st1" width="4" height="4"/>
		
			<rect id="Rectangle_93-16" x="99" y="1.6" transform="matrix(2.535182e-06 1 -1 2.535182e-06 104.5545 -97.4447)" class="st1" width="4" height="4"/>
		
			<rect id="Rectangle_94-16" x="85" y="1.6" transform="matrix(2.535182e-06 1 -1 2.535182e-06 90.5546 -83.4448)" class="st1" width="4" height="4"/>
		
			<rect id="Rectangle_95-16" x="70" y="1.6" transform="matrix(2.535182e-06 1 -1 2.535182e-06 75.5546 -68.4448)" class="st1" width="4" height="4"/>
		
			<rect id="Rectangle_96-16" x="55" y="1.6" transform="matrix(2.535182e-06 1 -1 2.535182e-06 60.5547 -53.4448)" class="st1" width="4" height="4"/>
		
			<rect id="Rectangle_97-16" x="40" y="1.6" transform="matrix(2.535182e-06 1 -1 2.535182e-06 45.5548 -38.4449)" class="st1" width="4" height="4"/>
		
			<rect id="Rectangle_98-16" x="25" y="1.6" transform="matrix(2.535182e-06 1 -1 2.535182e-06 30.5548 -23.4449)" class="st1" width="4" height="4"/>
		
			<rect id="Rectangle_99-16" x="10" y="1.6" transform="matrix(2.535182e-06 1 -1 2.535182e-06 15.555 -8.445)" class="st1" width="4" height="4"/>
	</g>
	<g id="Groupe_101" transform="translate(-4340.129 4510.694)">
		
			<rect id="Rectangle_86-17" x="203.5" y="1.8" transform="matrix(2.535182e-06 1 -1 2.535182e-06 208.806 -201.1925)" class="st1" width="3" height="4"/>
		
			<rect id="Rectangle_87-17" x="189.5" y="1.8" transform="matrix(2.535182e-06 1 -1 2.535182e-06 194.806 -187.1925)" class="st1" width="3" height="4"/>
		
			<rect id="Rectangle_88-17" x="174.5" y="1.8" transform="matrix(2.535182e-06 1 -1 2.535182e-06 179.8061 -172.1925)" class="st1" width="3" height="4"/>
		
			<rect id="Rectangle_89-17" x="159.5" y="1.8" transform="matrix(2.535182e-06 1 -1 2.535182e-06 164.8062 -157.1926)" class="st1" width="3" height="4"/>
		
			<rect id="Rectangle_90-17" x="144.5" y="1.8" transform="matrix(2.535182e-06 1 -1 2.535182e-06 149.8062 -142.1926)" class="st1" width="3" height="4"/>
		
			<rect id="Rectangle_91-17" x="129.5" y="1.8" transform="matrix(2.535182e-06 1 -1 2.535182e-06 134.8064 -127.1927)" class="st1" width="3" height="4"/>
		
			<rect id="Rectangle_92-17" x="114.5" y="1.8" transform="matrix(2.535182e-06 1 -1 2.535182e-06 119.8064 -112.1927)" class="st1" width="3" height="4"/>
		
			<rect id="Rectangle_93-17" x="99.5" y="1.8" transform="matrix(2.535182e-06 1 -1 2.535182e-06 104.8064 -97.1927)" class="st1" width="3" height="4"/>
		
			<rect id="Rectangle_94-17" x="85.5" y="1.8" transform="matrix(2.535182e-06 1 -1 2.535182e-06 90.8066 -83.1928)" class="st1" width="3" height="4"/>
		
			<rect id="Rectangle_95-17" x="70.5" y="1.8" transform="matrix(2.535182e-06 1 -1 2.535182e-06 75.8066 -68.1928)" class="st1" width="3" height="4"/>
		
			<rect id="Rectangle_96-17" x="55.5" y="1.8" transform="matrix(2.535182e-06 1 -1 2.535182e-06 60.8068 -53.1929)" class="st1" width="3" height="4"/>
		
			<rect id="Rectangle_97-17" x="40.5" y="1.8" transform="matrix(2.535182e-06 1 -1 2.535182e-06 45.8068 -38.1929)" class="st1" width="3" height="4"/>
		
			<rect id="Rectangle_98-17" x="25.5" y="1.8" transform="matrix(2.535182e-06 1 -1 2.535182e-06 30.8068 -23.1929)" class="st1" width="3" height="4"/>
		
			<rect id="Rectangle_99-17" x="10.5" y="1.8" transform="matrix(2.535182e-06 1 -1 2.535182e-06 15.807 -8.193)" class="st1" width="3" height="4"/>
	</g>
	<g id="Groupe_102" transform="translate(-4340.129 4571.561)">
		
			<rect id="Rectangle_86-18" x="203.5" y="1.9" transform="matrix(2.535182e-06 1 -1 2.535182e-06 208.938 -201.0605)" class="st1" width="3" height="4"/>
		
			<rect id="Rectangle_87-18" x="189.5" y="1.9" transform="matrix(2.535182e-06 1 -1 2.535182e-06 194.938 -187.0605)" class="st1" width="3" height="4"/>
		
			<rect id="Rectangle_88-18" x="174.5" y="1.9" transform="matrix(2.535182e-06 1 -1 2.535182e-06 179.9381 -172.0606)" class="st1" width="3" height="4"/>
		
			<rect id="Rectangle_89-18" x="159.5" y="1.9" transform="matrix(2.535182e-06 1 -1 2.535182e-06 164.9382 -157.0606)" class="st1" width="3" height="4"/>
		
			<rect id="Rectangle_90-18" x="144.5" y="1.9" transform="matrix(2.535182e-06 1 -1 2.535182e-06 149.9382 -142.0606)" class="st1" width="3" height="4"/>
		
			<rect id="Rectangle_91-18" x="129.5" y="1.9" transform="matrix(2.535182e-06 1 -1 2.535182e-06 134.9384 -127.0607)" class="st1" width="3" height="4"/>
		
			<rect id="Rectangle_92-18" x="114.5" y="1.9" transform="matrix(2.535182e-06 1 -1 2.535182e-06 119.9384 -112.0607)" class="st1" width="3" height="4"/>
		
			<rect id="Rectangle_93-18" x="99.5" y="1.9" transform="matrix(2.535182e-06 1 -1 2.535182e-06 104.9384 -97.0607)" class="st1" width="3" height="4"/>
		
			<rect id="Rectangle_94-18" x="85.5" y="1.9" transform="matrix(2.535182e-06 1 -1 2.535182e-06 90.9386 -83.0608)" class="st1" width="3" height="4"/>
		
			<rect id="Rectangle_95-18" x="70.5" y="1.9" transform="matrix(2.535182e-06 1 -1 2.535182e-06 75.9386 -68.0608)" class="st1" width="3" height="4"/>
		
			<rect id="Rectangle_96-18" x="55.5" y="1.9" transform="matrix(2.535182e-06 1 -1 2.535182e-06 60.9388 -53.0609)" class="st1" width="3" height="4"/>
		
			<rect id="Rectangle_97-18" x="40.5" y="1.9" transform="matrix(2.535182e-06 1 -1 2.535182e-06 45.9388 -38.0609)" class="st1" width="3" height="4"/>
		
			<rect id="Rectangle_98-18" x="25.5" y="1.9" transform="matrix(2.535182e-06 1 -1 2.535182e-06 30.9388 -23.0609)" class="st1" width="3" height="4"/>
		
			<rect id="Rectangle_99-18" x="10.5" y="1.9" transform="matrix(2.535182e-06 1 -1 2.535182e-06 15.939 -8.061)" class="st1" width="3" height="4"/>
	</g>
	<g id="Groupe_107" transform="translate(-4340.129 4631.752)">
		
			<rect id="Rectangle_86-19" x="203" y="2.2" transform="matrix(2.535182e-06 1 -1 2.535182e-06 209.248 -200.7505)" class="st1" width="4" height="4"/>
		
			<rect id="Rectangle_87-19" x="189" y="2.2" transform="matrix(2.535182e-06 1 -1 2.535182e-06 195.248 -186.7505)" class="st1" width="4" height="4"/>
		
			<rect id="Rectangle_88-19" x="174" y="2.2" transform="matrix(2.535182e-06 1 -1 2.535182e-06 180.2481 -171.7506)" class="st1" width="4" height="4"/>
		
			<rect id="Rectangle_89-19" x="159" y="2.2" transform="matrix(2.535182e-06 1 -1 2.535182e-06 165.2482 -156.7506)" class="st1" width="4" height="4"/>
		
			<rect id="Rectangle_90-19" x="144" y="2.2" transform="matrix(2.535182e-06 1 -1 2.535182e-06 150.2482 -141.7506)" class="st1" width="4" height="4"/>
		
			<rect id="Rectangle_91-19" x="129" y="2.2" transform="matrix(2.535182e-06 1 -1 2.535182e-06 135.2484 -126.7507)" class="st1" width="4" height="4"/>
		
			<rect id="Rectangle_92-19" x="114" y="2.2" transform="matrix(2.535182e-06 1 -1 2.535182e-06 120.2484 -111.7507)" class="st1" width="4" height="4"/>
		
			<rect id="Rectangle_93-19" x="99" y="2.2" transform="matrix(2.535182e-06 1 -1 2.535182e-06 105.2485 -96.7507)" class="st1" width="4" height="4"/>
		
			<rect id="Rectangle_94-19" x="85" y="2.2" transform="matrix(2.535182e-06 1 -1 2.535182e-06 91.2486 -82.7508)" class="st1" width="4" height="4"/>
		
			<rect id="Rectangle_95-19" x="70" y="2.2" transform="matrix(2.535182e-06 1 -1 2.535182e-06 76.2486 -67.7508)" class="st1" width="4" height="4"/>
		
			<rect id="Rectangle_96-19" x="55" y="2.2" transform="matrix(2.535182e-06 1 -1 2.535182e-06 61.2488 -52.7509)" class="st1" width="4" height="4"/>
		
			<rect id="Rectangle_97-19" x="40" y="2.2" transform="matrix(2.535182e-06 1 -1 2.535182e-06 46.2488 -37.7509)" class="st1" width="4" height="4"/>
		
			<rect id="Rectangle_98-19" x="25" y="2.2" transform="matrix(2.535182e-06 1 -1 2.535182e-06 31.2488 -22.7509)" class="st1" width="4" height="4"/>
		
			<rect id="Rectangle_99-19" x="10" y="2.2" transform="matrix(2.535182e-06 1 -1 2.535182e-06 16.249 -7.751)" class="st1" width="4" height="4"/>
	</g>
	<g id="Groupe_112" transform="translate(-4340.129 4691.943)">
		
			<rect id="Rectangle_86-20" x="203" y="2.1" transform="matrix(2.535182e-06 1 -1 2.535182e-06 209.057 -200.9415)" class="st1" width="4" height="4"/>
		
			<rect id="Rectangle_87-20" x="189" y="2.1" transform="matrix(2.535182e-06 1 -1 2.535182e-06 195.057 -186.9415)" class="st1" width="4" height="4"/>
		
			<rect id="Rectangle_88-20" x="174" y="2.1" transform="matrix(2.535182e-06 1 -1 2.535182e-06 180.0571 -171.9415)" class="st1" width="4" height="4"/>
		
			<rect id="Rectangle_89-20" x="159" y="2.1" transform="matrix(2.535182e-06 1 -1 2.535182e-06 165.0572 -156.9416)" class="st1" width="4" height="4"/>
		
			<rect id="Rectangle_90-20" x="144" y="2.1" transform="matrix(2.535182e-06 1 -1 2.535182e-06 150.0572 -141.9416)" class="st1" width="4" height="4"/>
		
			<rect id="Rectangle_91-20" x="129" y="2.1" transform="matrix(2.535182e-06 1 -1 2.535182e-06 135.0574 -126.9417)" class="st1" width="4" height="4"/>
		
			<rect id="Rectangle_92-20" x="114" y="2.1" transform="matrix(2.535182e-06 1 -1 2.535182e-06 120.0574 -111.9417)" class="st1" width="4" height="4"/>
		
			<rect id="Rectangle_93-20" x="99" y="2.1" transform="matrix(2.535182e-06 1 -1 2.535182e-06 105.0574 -96.9417)" class="st1" width="4" height="4"/>
		
			<rect id="Rectangle_94-20" x="85" y="2.1" transform="matrix(2.535182e-06 1 -1 2.535182e-06 91.0576 -82.9418)" class="st1" width="4" height="4"/>
		
			<rect id="Rectangle_95-20" x="70" y="2.1" transform="matrix(2.535182e-06 1 -1 2.535182e-06 76.0576 -67.9418)" class="st1" width="4" height="4"/>
		
			<rect id="Rectangle_96-20" x="55" y="2.1" transform="matrix(2.535182e-06 1 -1 2.535182e-06 61.0577 -52.9418)" class="st1" width="4" height="4"/>
		
			<rect id="Rectangle_97-20" x="40" y="2.1" transform="matrix(2.535182e-06 1 -1 2.535182e-06 46.0578 -37.9419)" class="st1" width="4" height="4"/>
		
			<rect id="Rectangle_98-20" x="25" y="2.1" transform="matrix(2.535182e-06 1 -1 2.535182e-06 31.0578 -22.9419)" class="st1" width="4" height="4"/>
		
			<rect id="Rectangle_99-20" x="10" y="2.1" transform="matrix(2.535182e-06 1 -1 2.535182e-06 16.058 -7.942)" class="st1" width="4" height="4"/>
	</g>
</g>
<path id="Background" class="st2" d="M0,960c0,0,239.9-129.7,479.9-129.7C719.9,830.3,960,960,960,960V0H0V960z"/>
<g class="st3">
	<g>
		<defs>
			<path id="SVGID_1_" d="M736.2,96.9L736.2,96.9c26.5-17.9,62.5-10.9,80.4,15.6l50.4,74.7c17.9,26.5,10.9,62.5-15.6,80.4l0,0
				c-26.5,17.9-62.5,10.9-80.4-15.6l-50.4-74.7C702.7,150.8,709.7,114.8,736.2,96.9z"/>
		</defs>
		<clipPath id="SVGID_2_">
			<use xlink:href="#SVGID_1_"  style="overflow:visible;"/>
		</clipPath>
		<g id="Groupe_de_masques_4" transform="translate(0 0)" class="st4">
			<path id="Tracé_12482" class="st5" d="M824.3,195.5c29.7,0,53.7-24,53.7-53.7s-24-53.7-53.7-53.7c-29.7,0-53.7,24-53.7,53.7
				C770.6,171.5,794.6,195.5,824.3,195.5C824.3,195.5,824.3,195.5,824.3,195.5z"/>
		</g>
	</g>
</g>
<polygon class="st6" points="236,365.1 240.8,374.8 251.5,376.3 243.7,383.9 245.6,394.5 236,389.5 226.4,394.5 228.3,383.9 
	220.5,376.3 231.2,374.8 "/>
<polygon class="st6" points="283.2,470.3 288,480 298.7,481.6 291,489.1 292.8,499.7 283.2,494.7 273.7,499.7 275.5,489.1 
	267.8,481.6 278.4,480 "/>
<polygon class="st6" points="516.2,499.7 521,509.4 531.7,511 524,518.5 525.8,529.1 516.2,524.1 506.7,529.1 508.5,518.5 
	500.8,511 511.4,509.4 "/>
<polygon class="st6" points="500.8,583.6 505.5,593.3 516.2,594.8 508.5,602.4 510.3,613 500.8,608 491.2,613 493,602.4 
	485.3,594.8 496,593.3 "/>
<polygon class="st6" points="426.8,671.3 431.6,681 442.2,682.5 434.5,690.1 436.3,700.7 426.8,695.7 417.2,700.7 419,690.1 
	411.3,682.5 422,681 "/>
<polygon class="st6" points="362.8,598.3 367.6,608 378.2,609.5 370.5,617.1 372.3,627.7 362.8,622.7 353.2,627.7 355,617.1 
	347.3,609.5 358,608 "/>
<polygon class="st6" points="416.8,465.3 421.6,475 432.2,476.5 424.5,484.1 426.3,494.7 416.8,489.7 407.2,494.7 409,484.1 
	401.3,476.5 412,475 "/>
<polygon class="st6" points="495.5,399.3 500.2,409 510.9,410.6 503.2,418.1 505,428.7 495.5,423.7 485.9,428.7 487.7,418.1 
	480,410.6 490.7,409 "/>
<polygon class="st6" points="609.5,394.5 614.2,404.2 624.9,405.7 617.2,413.3 619,423.9 609.5,418.9 599.9,423.9 601.7,413.3 
	594,405.7 604.7,404.2 "/>
<polygon class="st6" points="681.5,480 686.2,489.7 696.9,491.2 689.2,498.8 691,509.4 681.5,504.4 671.9,509.4 673.7,498.8 
	666,491.2 676.7,489.7 "/>
<polygon class="st6" points="741.5,579.6 746.2,589.3 756.9,590.8 749.2,598.4 751,609 741.5,604 731.9,609 733.7,598.4 726,590.8 
	736.7,589.3 "/>
<polygon class="st6" points="793.8,664.6 798.5,674.3 809.2,675.8 801.5,683.4 803.3,694 793.8,689 784.2,694 786,683.4 
	778.3,675.8 789,674.3 "/>
<polygon class="st6" points="666,673.3 670.8,683 681.5,684.5 673.7,692.1 675.6,702.7 666,697.7 656.4,702.7 658.3,692.1 
	650.5,684.5 661.2,683 "/>
<polygon class="st6" points="578.5,685.3 583.3,695 594,696.5 586.3,704.1 588.1,714.7 578.5,709.7 569,714.7 570.8,704.1 
	563.1,696.5 573.8,695 "/>
<polygon class="st6" points="609.5,559 614.2,568.7 624.9,570.2 617.2,577.8 619,588.4 609.5,583.4 599.9,588.4 601.7,577.8 
	594,570.2 604.7,568.7 "/>
<polygon class="st6" points="510.9,244.3 515.7,254 526.4,255.6 518.7,263.1 520.5,273.7 510.9,268.7 501.4,273.7 503.2,263.1 
	495.5,255.6 506.1,254 "/>
<polygon class="st6" points="373.8,236.3 378.6,246 389.2,247.6 381.5,255.1 383.3,265.7 373.8,260.7 364.2,265.7 366,255.1 
	358.3,247.6 369,246 "/>
<polygon class="st6" points="452.2,173.3 457,183 467.7,184.6 460,192.1 461.8,202.7 452.2,197.7 442.7,202.7 444.5,192.1 
	436.8,184.6 447.4,183 "/>
<polygon class="st6" points="547.1,118.3 551.9,128 562.6,129.6 554.9,137.1 556.7,147.7 547.1,142.7 537.6,147.7 539.4,137.1 
	531.7,129.6 542.4,128 "/>
<polygon class="st6" points="640.4,65.3 645.2,75 655.9,76.6 648.1,84.1 649.9,94.7 640.4,89.7 630.8,94.7 632.7,84.1 624.9,76.6 
	635.6,75 "/>
<polygon class="st6" points="762.8,57.6 767.6,67.3 778.3,68.8 770.6,76.4 772.4,87 762.8,82 753.3,87 755.1,76.4 747.4,68.8 
	758.1,67.3 "/>
<polygon class="st6" points="854.8,65.3 859.6,75 870.3,76.6 862.6,84.1 864.4,94.7 854.8,89.7 845.3,94.7 847.1,84.1 839.4,76.6 
	850.1,75 "/>
<polygon class="st6" points="854.8,229.6 859.6,239.3 870.3,240.8 862.6,248.4 864.4,259 854.8,254 845.3,259 847.1,248.4 
	839.4,240.8 850.1,239.3 "/>
<polygon class="st6" points="655.9,214.9 660.6,224.6 671.3,226.1 663.6,233.7 665.4,244.3 655.9,239.3 646.3,244.3 648.1,233.7 
	640.4,226.1 651.1,224.6 "/>
<polygon class="st6" points="705.9,302.9 710.6,312.6 721.3,314.1 713.6,321.7 715.4,332.3 705.9,327.3 696.3,332.3 698.1,321.7 
	690.4,314.1 701.1,312.6 "/>
<polygon class="st6" points="389.2,328.5 394,338.2 404.7,339.8 397,347.3 398.8,357.9 389.2,352.9 379.7,357.9 381.5,347.3 
	373.8,339.8 384.5,338.2 "/>
<polygon class="st6" points="800.7,343.2 805.5,352.9 816.2,354.5 808.5,362 810.3,372.6 800.7,367.6 791.2,372.6 793,362 
	785.3,354.5 796,352.9 "/>
<polygon class="st6" points="849,450.6 853.8,460.3 864.5,461.8 856.7,469.4 858.6,480 849,475 839.4,480 841.3,469.4 833.5,461.8 
	844.2,460.3 "/>
<polygon class="st6" points="870.3,564.9 875.1,574.6 885.8,576.1 878,583.7 879.9,594.3 870.3,589.3 860.7,594.3 862.6,583.7 
	854.8,576.1 865.5,574.6 "/>
<polygon class="st6" points="901.2,715.3 906,725 916.7,726.5 909,734.1 910.8,744.7 901.2,739.7 891.7,744.7 893.5,734.1 
	885.8,726.5 896.4,725 "/>
<polygon class="st6" points="839.4,760.3 844.1,770 854.8,771.5 847.1,779.1 848.9,789.7 839.4,784.7 829.8,789.7 831.6,779.1 
	823.9,771.5 834.6,770 "/>
<polygon class="st6" points="756.9,777.3 761.7,787 772.4,788.5 764.7,796.1 766.5,806.7 756.9,801.7 747.4,806.7 749.2,796.1 
	741.5,788.5 752.1,787 "/>
<polygon class="st6" points="495.5,758.3 500.2,768 510.9,769.5 503.2,777.1 505,787.7 495.5,782.7 485.9,787.7 487.7,777.1 
	480,769.5 490.7,768 "/>
<polygon class="st6" points="401.3,762.6 406.1,772.3 416.8,773.8 409,781.4 410.9,792 401.3,787 391.8,792 393.6,781.4 
	385.9,773.8 396.5,772.3 "/>
<polygon class="st6" points="196,802 200.8,811.7 211.5,813.2 203.7,820.8 205.6,831.4 196,826.4 186.4,831.4 188.3,820.8 
	180.5,813.2 191.2,811.7 "/>
<polygon class="st6" points="111,850.2 115.8,859.9 126.5,861.5 118.7,869 120.6,879.6 111,874.6 101.4,879.6 103.3,869 95.5,861.5 
	106.2,859.9 "/>
<polygon class="st6" points="102,762.3 106.8,772 117.5,773.5 109.7,781.1 111.6,791.7 102,786.7 92.4,791.7 94.3,781.1 86.5,773.5 
	97.2,772 "/>
<polygon class="st6" points="171,663.6 175.8,673.3 186.5,674.8 178.7,682.4 180.6,693 171,688 161.4,693 163.3,682.4 155.5,674.8 
	166.2,673.3 "/>
<polygon class="st6" points="95.5,202.7 100.3,212.4 111,214 103.3,221.5 105.1,232.1 95.5,227.1 86,232.1 87.8,221.5 80.1,214 
	90.8,212.4 "/>
<polygon class="st6" points="220.5,107.5 225.3,117.2 236,118.8 228.3,126.3 230.1,137 220.5,131.9 211,137 212.8,126.3 
	205.1,118.8 215.8,117.2 "/>
<polygon class="st6" points="381.7,72.3 386.5,82 397.2,83.5 389.5,91.1 391.3,101.7 381.7,96.7 372.2,101.7 374,91.1 366.3,83.5 
	377,82 "/>
<polygon class="st6" points="72.5,35.9 77.3,45.6 88,47.1 80.3,54.7 82.1,65.3 72.5,60.3 63,65.3 64.8,54.7 57.1,47.1 67.8,45.6 "/>
<polygon class="st6" points="180.5,35.9 185.3,45.6 196,47.1 188.3,54.7 190.1,65.3 180.5,60.3 171,65.3 172.8,54.7 165.1,47.1 
	175.8,45.6 "/>
<polygon class="st6" points="223,236.3 227.8,246 238.5,247.6 230.7,255.1 232.6,265.7 223,260.7 213.4,265.7 215.3,255.1 
	207.5,247.6 218.2,246 "/>
<polygon class="st6" points="154.5,277.6 159.2,287.2 169.9,288.8 162.2,296.3 164,307 154.5,301.9 144.9,307 146.7,296.3 
	139,288.8 149.7,287.2 "/>
<polygon class="st6" points="88,379.8 92.8,389.5 103.5,391 95.7,398.6 97.6,409.2 88,404.2 78.4,409.2 80.3,398.6 72.5,391 
	83.2,389.5 "/>
<polygon class="st6" points="123,455.6 127.8,465.3 138.5,466.8 130.7,474.4 132.6,485 123,480 113.4,485 115.3,474.4 107.5,466.8 
	118.2,465.3 "/>
</svg>
