<?xml version="1.0" encoding="utf-8"?>
<!-- Generator: Adobe Illustrator 17.0.0, SVG Export Plug-In . SVG Version: 6.00 Build 0)  -->
<!DOCTYPE svg PUBLIC "-//W3C//DTD SVG 1.1//EN" "http://www.w3.org/Graphics/SVG/1.1/DTD/svg11.dtd">
<svg version="1.1" id="Groupe_117" xmlns="http://www.w3.org/2000/svg" xmlns:xlink="http://www.w3.org/1999/xlink" x="0px" y="0px"
	 width="960px" height="960px" viewBox="0 0 960 960" enable-background="new 0 0 960 960" xml:space="preserve">
<g id="Groupe_1" transform="translate(4724 4939.129) rotate(90)" opacity="0.8">
	<g id="Groupe_97" transform="translate(-4340.129 4462)">
		
			<rect id="Rectangle_86" x="203" y="2" transform="matrix(2.578893e-006 1 -1 2.578893e-006 208.9995 -201)" fill="#35E7B3" width="4" height="4"/>
		
			<rect id="Rectangle_87" x="189" y="2" transform="matrix(2.578893e-006 1 -1 2.578893e-006 194.9995 -187)" fill="#35E7B3" width="4" height="4"/>
		
			<rect id="Rectangle_88" x="174" y="2" transform="matrix(2.578893e-006 1 -1 2.578893e-006 179.9995 -172)" fill="#35E7B3" width="4" height="4"/>
		
			<rect id="Rectangle_89" x="159" y="2" transform="matrix(2.578893e-006 1 -1 2.578893e-006 164.9996 -157)" fill="#35E7B3" width="4" height="4"/>
		
			<rect id="Rectangle_90" x="144" y="2" transform="matrix(2.578893e-006 1 -1 2.578893e-006 149.9996 -142)" fill="#35E7B3" width="4" height="4"/>
		
			<rect id="Rectangle_91" x="129" y="2" transform="matrix(2.578893e-006 1 -1 2.578893e-006 134.9997 -127)" fill="#35E7B3" width="4" height="4"/>
		
			<rect id="Rectangle_92" x="114" y="2" transform="matrix(2.578893e-006 1 -1 2.578893e-006 119.9997 -112)" fill="#35E7B3" width="4" height="4"/>
		
			<rect id="Rectangle_93" x="99" y="2" transform="matrix(2.578893e-006 1 -1 2.578893e-006 104.9997 -97)" fill="#35E7B3" width="4" height="4"/>
		
			<rect id="Rectangle_94" x="85" y="2" transform="matrix(2.578893e-006 1 -1 2.578893e-006 90.9998 -83)" fill="#35E7B3" width="4" height="4"/>
		
			<rect id="Rectangle_95" x="70" y="2" transform="matrix(2.578893e-006 1 -1 2.578893e-006 75.9998 -68)" fill="#35E7B3" width="4" height="4"/>
		
			<rect id="Rectangle_96" x="55" y="2" transform="matrix(2.578893e-006 1 -1 2.578893e-006 60.9999 -53)" fill="#35E7B3" width="4" height="4"/>
		
			<rect id="Rectangle_97" x="40" y="2" transform="matrix(2.578893e-006 1 -1 2.578893e-006 45.9999 -38)" fill="#35E7B3" width="4" height="4"/>
		
			<rect id="Rectangle_98" x="25" y="2" transform="matrix(2.578893e-006 1 -1 2.578893e-006 30.9999 -23)" fill="#35E7B3" width="4" height="4"/>
		
			<rect id="Rectangle_99" x="10" y="2" transform="matrix(2.578893e-006 1 -1 2.578893e-006 16 -8)" fill="#35E7B3" width="4" height="4"/>
	</g>
	<g id="Groupe_106" transform="translate(-4340.129 4522.191)">
		
			<rect id="Rectangle_86-2" x="203" y="1.81" transform="matrix(2.578893e-006 1 -1 2.578893e-006 208.8095 -201.19)" fill="#35E7B3" width="4" height="4"/>
		
			<rect id="Rectangle_87-2" x="189" y="1.81" transform="matrix(2.578893e-006 1 -1 2.578893e-006 194.8095 -187.19)" fill="#35E7B3" width="4" height="4"/>
		
			<rect id="Rectangle_88-2" x="174" y="1.81" transform="matrix(2.578893e-006 1 -1 2.578893e-006 179.8095 -172.19)" fill="#35E7B3" width="4" height="4"/>
		
			<rect id="Rectangle_89-2" x="159" y="1.81" transform="matrix(2.578893e-006 1 -1 2.578893e-006 164.8096 -157.19)" fill="#35E7B3" width="4" height="4"/>
		
			<rect id="Rectangle_90-2" x="144" y="1.81" transform="matrix(2.578893e-006 1 -1 2.578893e-006 149.8096 -142.19)" fill="#35E7B3" width="4" height="4"/>
		
			<rect id="Rectangle_91-2" x="129" y="1.81" transform="matrix(2.578893e-006 1 -1 2.578893e-006 134.8097 -127.19)" fill="#35E7B3" width="4" height="4"/>
		
			<rect id="Rectangle_92-2" x="114" y="1.81" transform="matrix(2.578893e-006 1 -1 2.578893e-006 119.8097 -112.19)" fill="#35E7B3" width="4" height="4"/>
		
			<rect id="Rectangle_93-2" x="99" y="1.81" transform="matrix(2.578893e-006 1 -1 2.578893e-006 104.8097 -97.19)" fill="#35E7B3" width="4" height="4"/>
		
			<rect id="Rectangle_94-2" x="85" y="1.81" transform="matrix(2.578893e-006 1 -1 2.578893e-006 90.8098 -83.19)" fill="#35E7B3" width="4" height="4"/>
		
			<rect id="Rectangle_95-2" x="70" y="1.81" transform="matrix(2.578893e-006 1 -1 2.578893e-006 75.8098 -68.19)" fill="#35E7B3" width="4" height="4"/>
		
			<rect id="Rectangle_96-2" x="55" y="1.81" transform="matrix(2.578893e-006 1 -1 2.578893e-006 60.8099 -53.19)" fill="#35E7B3" width="4" height="4"/>
		
			<rect id="Rectangle_97-2" x="40" y="1.81" transform="matrix(2.578893e-006 1 -1 2.578893e-006 45.8099 -38.19)" fill="#35E7B3" width="4" height="4"/>
		
			<rect id="Rectangle_98-2" x="25" y="1.81" transform="matrix(2.578893e-006 1 -1 2.578893e-006 30.8099 -23.19)" fill="#35E7B3" width="4" height="4"/>
		
			<rect id="Rectangle_99-2" x="10" y="1.81" transform="matrix(2.578893e-006 1 -1 2.578893e-006 15.81 -8.19)" fill="#35E7B3" width="4" height="4"/>
	</g>
	<g id="Groupe_111" transform="translate(-4340.129 4583.058)">
		
			<rect id="Rectangle_86-3" x="203.5" y="1.442" transform="matrix(2.578893e-006 1 -1 2.578893e-006 208.4415 -201.558)" fill="#35E7B3" width="3" height="4"/>
		
			<rect id="Rectangle_87-3" x="189.5" y="1.442" transform="matrix(2.578893e-006 1 -1 2.578893e-006 194.4415 -187.558)" fill="#35E7B3" width="3" height="4"/>
		
			<rect id="Rectangle_88-3" x="174.5" y="1.442" transform="matrix(2.578893e-006 1 -1 2.578893e-006 179.4415 -172.558)" fill="#35E7B3" width="3" height="4"/>
		
			<rect id="Rectangle_89-3" x="159.5" y="1.442" transform="matrix(2.578893e-006 1 -1 2.578893e-006 164.4416 -157.558)" fill="#35E7B3" width="3" height="4"/>
		
			<rect id="Rectangle_90-3" x="144.5" y="1.442" transform="matrix(2.578893e-006 1 -1 2.578893e-006 149.4416 -142.558)" fill="#35E7B3" width="3" height="4"/>
		
			<rect id="Rectangle_91-3" x="129.5" y="1.442" transform="matrix(2.578893e-006 1 -1 2.578893e-006 134.4417 -127.558)" fill="#35E7B3" width="3" height="4"/>
		
			<rect id="Rectangle_92-3" x="114.5" y="1.442" transform="matrix(2.578893e-006 1 -1 2.578893e-006 119.4417 -112.558)" fill="#35E7B3" width="3" height="4"/>
		
			<rect id="Rectangle_93-3" x="99.5" y="1.442" transform="matrix(2.578893e-006 1 -1 2.578893e-006 104.4417 -97.558)" fill="#35E7B3" width="3" height="4"/>
		
			<rect id="Rectangle_94-3" x="85.5" y="1.442" transform="matrix(2.578893e-006 1 -1 2.578893e-006 90.4418 -83.558)" fill="#35E7B3" width="3" height="4"/>
		
			<rect id="Rectangle_95-3" x="70.5" y="1.442" transform="matrix(2.578893e-006 1 -1 2.578893e-006 75.4418 -68.558)" fill="#35E7B3" width="3" height="4"/>
		
			<rect id="Rectangle_96-3" x="55.5" y="1.442" transform="matrix(2.578893e-006 1 -1 2.578893e-006 60.4419 -53.558)" fill="#35E7B3" width="3" height="4"/>
		
			<rect id="Rectangle_97-3" x="40.5" y="1.442" transform="matrix(2.578893e-006 1 -1 2.578893e-006 45.4419 -38.558)" fill="#35E7B3" width="3" height="4"/>
		
			<rect id="Rectangle_98-3" x="25.5" y="1.442" transform="matrix(2.578893e-006 1 -1 2.578893e-006 30.4419 -23.558)" fill="#35E7B3" width="3" height="4"/>
		
			<rect id="Rectangle_99-3" x="10.5" y="1.442" transform="matrix(2.578893e-006 1 -1 2.578893e-006 15.442 -8.558)" fill="#35E7B3" width="3" height="4"/>
	</g>
	<g id="Groupe_116" transform="translate(-4340.129 4643.925)">
		
			<rect id="Rectangle_86-4" x="203.5" y="1.575" transform="matrix(2.578893e-006 1 -1 2.578893e-006 208.5745 -201.425)" fill="#35E7B3" width="3" height="4"/>
		
			<rect id="Rectangle_87-4" x="189.5" y="1.575" transform="matrix(2.578893e-006 1 -1 2.578893e-006 194.5745 -187.425)" fill="#35E7B3" width="3" height="4"/>
		
			<rect id="Rectangle_88-4" x="174.5" y="1.575" transform="matrix(2.578893e-006 1 -1 2.578893e-006 179.5745 -172.425)" fill="#35E7B3" width="3" height="4"/>
		
			<rect id="Rectangle_89-4" x="159.5" y="1.575" transform="matrix(2.578893e-006 1 -1 2.578893e-006 164.5746 -157.425)" fill="#35E7B3" width="3" height="4"/>
		
			<rect id="Rectangle_90-4" x="144.5" y="1.575" transform="matrix(2.578893e-006 1 -1 2.578893e-006 149.5746 -142.425)" fill="#35E7B3" width="3" height="4"/>
		
			<rect id="Rectangle_91-4" x="129.5" y="1.575" transform="matrix(2.578893e-006 1 -1 2.578893e-006 134.5747 -127.425)" fill="#35E7B3" width="3" height="4"/>
		
			<rect id="Rectangle_92-4" x="114.5" y="1.575" transform="matrix(2.578893e-006 1 -1 2.578893e-006 119.5747 -112.425)" fill="#35E7B3" width="3" height="4"/>
		
			<rect id="Rectangle_93-4" x="99.5" y="1.575" transform="matrix(2.578893e-006 1 -1 2.578893e-006 104.5747 -97.425)" fill="#35E7B3" width="3" height="4"/>
		
			<rect id="Rectangle_94-4" x="85.5" y="1.575" transform="matrix(2.578893e-006 1 -1 2.578893e-006 90.5748 -83.425)" fill="#35E7B3" width="3" height="4"/>
		
			<rect id="Rectangle_95-4" x="70.5" y="1.575" transform="matrix(2.578893e-006 1 -1 2.578893e-006 75.5748 -68.425)" fill="#35E7B3" width="3" height="4"/>
		
			<rect id="Rectangle_96-4" x="55.5" y="1.575" transform="matrix(2.578893e-006 1 -1 2.578893e-006 60.5748 -53.425)" fill="#35E7B3" width="3" height="4"/>
		
			<rect id="Rectangle_97-4" x="40.5" y="1.575" transform="matrix(2.578893e-006 1 -1 2.578893e-006 45.5749 -38.425)" fill="#35E7B3" width="3" height="4"/>
		
			<rect id="Rectangle_98-4" x="25.5" y="1.575" transform="matrix(2.578893e-006 1 -1 2.578893e-006 30.5749 -23.425)" fill="#35E7B3" width="3" height="4"/>
		
			<rect id="Rectangle_99-4" x="10.5" y="1.575" transform="matrix(2.578893e-006 1 -1 2.578893e-006 15.575 -8.425)" fill="#35E7B3" width="3" height="4"/>
	</g>
	<g id="Groupe_98" transform="translate(-4340.129 4474.173)">
		
			<rect id="Rectangle_86-5" x="203" y="1.827" transform="matrix(2.578893e-006 1 -1 2.578893e-006 208.8265 -201.173)" fill="#35E7B3" width="4" height="4"/>
		
			<rect id="Rectangle_87-5" x="189" y="1.827" transform="matrix(2.578893e-006 1 -1 2.578893e-006 194.8265 -187.173)" fill="#35E7B3" width="4" height="4"/>
		
			<rect id="Rectangle_88-5" x="174" y="1.827" transform="matrix(2.578893e-006 1 -1 2.578893e-006 179.8266 -172.173)" fill="#35E7B3" width="4" height="4"/>
		
			<rect id="Rectangle_89-5" x="159" y="1.827" transform="matrix(2.578893e-006 1 -1 2.578893e-006 164.8266 -157.173)" fill="#35E7B3" width="4" height="4"/>
		
			<rect id="Rectangle_90-5" x="144" y="1.827" transform="matrix(2.578893e-006 1 -1 2.578893e-006 149.8266 -142.173)" fill="#35E7B3" width="4" height="4"/>
		
			<rect id="Rectangle_91-5" x="129" y="1.827" transform="matrix(2.578893e-006 1 -1 2.578893e-006 134.8267 -127.173)" fill="#35E7B3" width="4" height="4"/>
		
			<rect id="Rectangle_92-5" x="114" y="1.827" transform="matrix(2.578893e-006 1 -1 2.578893e-006 119.8267 -112.173)" fill="#35E7B3" width="4" height="4"/>
		
			<rect id="Rectangle_93-5" x="99" y="1.827" transform="matrix(2.578893e-006 1 -1 2.578893e-006 104.8267 -97.173)" fill="#35E7B3" width="4" height="4"/>
		
			<rect id="Rectangle_94-5" x="85" y="1.827" transform="matrix(2.578893e-006 1 -1 2.578893e-006 90.8268 -83.173)" fill="#35E7B3" width="4" height="4"/>
		
			<rect id="Rectangle_95-5" x="70" y="1.827" transform="matrix(2.578893e-006 1 -1 2.578893e-006 75.8268 -68.173)" fill="#35E7B3" width="4" height="4"/>
		
			<rect id="Rectangle_96-5" x="55" y="1.827" transform="matrix(2.578893e-006 1 -1 2.578893e-006 60.8269 -53.173)" fill="#35E7B3" width="4" height="4"/>
		
			<rect id="Rectangle_97-5" x="40" y="1.827" transform="matrix(2.578893e-006 1 -1 2.578893e-006 45.8269 -38.173)" fill="#35E7B3" width="4" height="4"/>
		
			<rect id="Rectangle_98-5" x="25" y="1.827" transform="matrix(2.578893e-006 1 -1 2.578893e-006 30.8269 -23.173)" fill="#35E7B3" width="4" height="4"/>
		
			<rect id="Rectangle_99-5" x="10" y="1.827" transform="matrix(2.578893e-006 1 -1 2.578893e-006 15.827 -8.173)" fill="#35E7B3" width="4" height="4"/>
	</g>
	<g id="Groupe_105" transform="translate(-4340.129 4535.041)">
		
			<rect id="Rectangle_86-6" x="203.5" y="1.46" transform="matrix(2.578893e-006 1 -1 2.578893e-006 208.4595 -201.54)" fill="#35E7B3" width="3" height="4"/>
		
			<rect id="Rectangle_87-6" x="189.5" y="1.46" transform="matrix(2.578893e-006 1 -1 2.578893e-006 194.4595 -187.54)" fill="#35E7B3" width="3" height="4"/>
		
			<rect id="Rectangle_88-6" x="174.5" y="1.46" transform="matrix(2.578893e-006 1 -1 2.578893e-006 179.4595 -172.54)" fill="#35E7B3" width="3" height="4"/>
		
			<rect id="Rectangle_89-6" x="159.5" y="1.46" transform="matrix(2.578893e-006 1 -1 2.578893e-006 164.4596 -157.54)" fill="#35E7B3" width="3" height="4"/>
		
			<rect id="Rectangle_90-6" x="144.5" y="1.46" transform="matrix(2.578893e-006 1 -1 2.578893e-006 149.4596 -142.54)" fill="#35E7B3" width="3" height="4"/>
		
			<rect id="Rectangle_91-6" x="129.5" y="1.46" transform="matrix(2.578893e-006 1 -1 2.578893e-006 134.4597 -127.54)" fill="#35E7B3" width="3" height="4"/>
		
			<rect id="Rectangle_92-6" x="114.5" y="1.46" transform="matrix(2.578893e-006 1 -1 2.578893e-006 119.4597 -112.54)" fill="#35E7B3" width="3" height="4"/>
		
			<rect id="Rectangle_93-6" x="99.5" y="1.46" transform="matrix(2.578893e-006 1 -1 2.578893e-006 104.4597 -97.54)" fill="#35E7B3" width="3" height="4"/>
		
			<rect id="Rectangle_94-6" x="85.5" y="1.46" transform="matrix(2.578893e-006 1 -1 2.578893e-006 90.4598 -83.54)" fill="#35E7B3" width="3" height="4"/>
		
			<rect id="Rectangle_95-6" x="70.5" y="1.46" transform="matrix(2.578893e-006 1 -1 2.578893e-006 75.4598 -68.54)" fill="#35E7B3" width="3" height="4"/>
		
			<rect id="Rectangle_96-6" x="55.5" y="1.46" transform="matrix(2.578893e-006 1 -1 2.578893e-006 60.4599 -53.54)" fill="#35E7B3" width="3" height="4"/>
		
			<rect id="Rectangle_97-6" x="40.5" y="1.46" transform="matrix(2.578893e-006 1 -1 2.578893e-006 45.4599 -38.54)" fill="#35E7B3" width="3" height="4"/>
		
			<rect id="Rectangle_98-6" x="25.5" y="1.46" transform="matrix(2.578893e-006 1 -1 2.578893e-006 30.4599 -23.54)" fill="#35E7B3" width="3" height="4"/>
		
			<rect id="Rectangle_99-6" x="10.5" y="1.46" transform="matrix(2.578893e-006 1 -1 2.578893e-006 15.46 -8.54)" fill="#35E7B3" width="3" height="4"/>
	</g>
	<g id="Groupe_110" transform="translate(-4340.129 4595.231)">
		
			<rect id="Rectangle_86-7" x="203" y="1.769" transform="matrix(2.578893e-006 1 -1 2.578893e-006 208.7685 -201.231)" fill="#35E7B3" width="4" height="4"/>
		
			<rect id="Rectangle_87-7" x="189" y="1.769" transform="matrix(2.578893e-006 1 -1 2.578893e-006 194.7685 -187.231)" fill="#35E7B3" width="4" height="4"/>
		
			<rect id="Rectangle_88-7" x="174" y="1.769" transform="matrix(2.578893e-006 1 -1 2.578893e-006 179.7686 -172.231)" fill="#35E7B3" width="4" height="4"/>
		
			<rect id="Rectangle_89-7" x="159" y="1.769" transform="matrix(2.578893e-006 1 -1 2.578893e-006 164.7686 -157.231)" fill="#35E7B3" width="4" height="4"/>
		
			<rect id="Rectangle_90-7" x="144" y="1.769" transform="matrix(2.578893e-006 1 -1 2.578893e-006 149.7686 -142.231)" fill="#35E7B3" width="4" height="4"/>
		
			<rect id="Rectangle_91-7" x="129" y="1.769" transform="matrix(2.578893e-006 1 -1 2.578893e-006 134.7687 -127.231)" fill="#35E7B3" width="4" height="4"/>
		
			<rect id="Rectangle_92-7" x="114" y="1.769" transform="matrix(2.578893e-006 1 -1 2.578893e-006 119.7687 -112.231)" fill="#35E7B3" width="4" height="4"/>
		
			<rect id="Rectangle_93-7" x="99" y="1.769" transform="matrix(2.578893e-006 1 -1 2.578893e-006 104.7687 -97.231)" fill="#35E7B3" width="4" height="4"/>
		
			<rect id="Rectangle_94-7" x="85" y="1.769" transform="matrix(2.578893e-006 1 -1 2.578893e-006 90.7688 -83.231)" fill="#35E7B3" width="4" height="4"/>
		
			<rect id="Rectangle_95-7" x="70" y="1.769" transform="matrix(2.578893e-006 1 -1 2.578893e-006 75.7688 -68.231)" fill="#35E7B3" width="4" height="4"/>
		
			<rect id="Rectangle_96-7" x="55" y="1.769" transform="matrix(2.578893e-006 1 -1 2.578893e-006 60.7689 -53.231)" fill="#35E7B3" width="4" height="4"/>
		
			<rect id="Rectangle_97-7" x="40" y="1.769" transform="matrix(2.578893e-006 1 -1 2.578893e-006 45.7689 -38.231)" fill="#35E7B3" width="4" height="4"/>
		
			<rect id="Rectangle_98-7" x="25" y="1.769" transform="matrix(2.578893e-006 1 -1 2.578893e-006 30.7689 -23.231)" fill="#35E7B3" width="4" height="4"/>
		
			<rect id="Rectangle_99-7" x="10" y="1.769" transform="matrix(2.578893e-006 1 -1 2.578893e-006 15.769 -8.231)" fill="#35E7B3" width="4" height="4"/>
	</g>
	<g id="Groupe_115" transform="translate(-4340.129 4655.422)">
		
			<rect id="Rectangle_86-8" x="203" y="1.578" transform="matrix(2.578893e-006 1 -1 2.578893e-006 208.5775 -201.422)" fill="#35E7B3" width="4" height="4"/>
		
			<rect id="Rectangle_87-8" x="189" y="1.578" transform="matrix(2.578893e-006 1 -1 2.578893e-006 194.5775 -187.422)" fill="#35E7B3" width="4" height="4"/>
		
			<rect id="Rectangle_88-8" x="174" y="1.578" transform="matrix(2.578893e-006 1 -1 2.578893e-006 179.5775 -172.422)" fill="#35E7B3" width="4" height="4"/>
		
			<rect id="Rectangle_89-8" x="159" y="1.578" transform="matrix(2.578893e-006 1 -1 2.578893e-006 164.5776 -157.422)" fill="#35E7B3" width="4" height="4"/>
		
			<rect id="Rectangle_90-8" x="144" y="1.578" transform="matrix(2.578893e-006 1 -1 2.578893e-006 149.5776 -142.422)" fill="#35E7B3" width="4" height="4"/>
		
			<rect id="Rectangle_91-8" x="129" y="1.578" transform="matrix(2.578893e-006 1 -1 2.578893e-006 134.5777 -127.422)" fill="#35E7B3" width="4" height="4"/>
		
			<rect id="Rectangle_92-8" x="114" y="1.578" transform="matrix(2.578893e-006 1 -1 2.578893e-006 119.5777 -112.422)" fill="#35E7B3" width="4" height="4"/>
		
			<rect id="Rectangle_93-8" x="99" y="1.578" transform="matrix(2.578893e-006 1 -1 2.578893e-006 104.5777 -97.422)" fill="#35E7B3" width="4" height="4"/>
		
			<rect id="Rectangle_94-8" x="85" y="1.578" transform="matrix(2.578893e-006 1 -1 2.578893e-006 90.5778 -83.422)" fill="#35E7B3" width="4" height="4"/>
		
			<rect id="Rectangle_95-8" x="70" y="1.578" transform="matrix(2.578893e-006 1 -1 2.578893e-006 75.5778 -68.422)" fill="#35E7B3" width="4" height="4"/>
		
			<rect id="Rectangle_96-8" x="55" y="1.578" transform="matrix(2.578893e-006 1 -1 2.578893e-006 60.5779 -53.422)" fill="#35E7B3" width="4" height="4"/>
		
			<rect id="Rectangle_97-8" x="40" y="1.578" transform="matrix(2.578893e-006 1 -1 2.578893e-006 45.5779 -38.422)" fill="#35E7B3" width="4" height="4"/>
		
			<rect id="Rectangle_98-8" x="25" y="1.578" transform="matrix(2.578893e-006 1 -1 2.578893e-006 30.5779 -23.422)" fill="#35E7B3" width="4" height="4"/>
		
			<rect id="Rectangle_99-8" x="10" y="1.578" transform="matrix(2.578893e-006 1 -1 2.578893e-006 15.578 -8.422)" fill="#35E7B3" width="4" height="4"/>
	</g>
	<g id="Groupe_99" transform="translate(-4340.129 4486.347)">
		
			<rect id="Rectangle_86-9" x="203" y="1.654" transform="matrix(2.578893e-006 1 -1 2.578893e-006 208.6535 -201.346)" fill="#35E7B3" width="4" height="4"/>
		
			<rect id="Rectangle_87-9" x="189" y="1.654" transform="matrix(2.578893e-006 1 -1 2.578893e-006 194.6535 -187.346)" fill="#35E7B3" width="4" height="4"/>
		
			<rect id="Rectangle_88-9" x="174" y="1.654" transform="matrix(2.578893e-006 1 -1 2.578893e-006 179.6535 -172.346)" fill="#35E7B3" width="4" height="4"/>
		
			<rect id="Rectangle_89-9" x="159" y="1.654" transform="matrix(2.578893e-006 1 -1 2.578893e-006 164.6536 -157.346)" fill="#35E7B3" width="4" height="4"/>
		
			<rect id="Rectangle_90-9" x="144" y="1.654" transform="matrix(2.578893e-006 1 -1 2.578893e-006 149.6536 -142.346)" fill="#35E7B3" width="4" height="4"/>
		
			<rect id="Rectangle_91-9" x="129" y="1.654" transform="matrix(2.578893e-006 1 -1 2.578893e-006 134.6537 -127.346)" fill="#35E7B3" width="4" height="4"/>
		
			<rect id="Rectangle_92-9" x="114" y="1.654" transform="matrix(2.578893e-006 1 -1 2.578893e-006 119.6537 -112.346)" fill="#35E7B3" width="4" height="4"/>
		
			<rect id="Rectangle_93-9" x="99" y="1.654" transform="matrix(2.578893e-006 1 -1 2.578893e-006 104.6537 -97.346)" fill="#35E7B3" width="4" height="4"/>
		
			<rect id="Rectangle_94-9" x="85" y="1.654" transform="matrix(2.578893e-006 1 -1 2.578893e-006 90.6538 -83.346)" fill="#35E7B3" width="4" height="4"/>
		
			<rect id="Rectangle_95-9" x="70" y="1.654" transform="matrix(2.578893e-006 1 -1 2.578893e-006 75.6538 -68.346)" fill="#35E7B3" width="4" height="4"/>
		
			<rect id="Rectangle_96-9" x="55" y="1.654" transform="matrix(2.578893e-006 1 -1 2.578893e-006 60.6539 -53.346)" fill="#35E7B3" width="4" height="4"/>
		
			<rect id="Rectangle_97-9" x="40" y="1.654" transform="matrix(2.578893e-006 1 -1 2.578893e-006 45.6539 -38.346)" fill="#35E7B3" width="4" height="4"/>
		
			<rect id="Rectangle_98-9" x="25" y="1.654" transform="matrix(2.578893e-006 1 -1 2.578893e-006 30.6539 -23.346)" fill="#35E7B3" width="4" height="4"/>
		
			<rect id="Rectangle_99-9" x="10" y="1.654" transform="matrix(2.578893e-006 1 -1 2.578893e-006 15.654 -8.346)" fill="#35E7B3" width="4" height="4"/>
	</g>
	<g id="Groupe_104" transform="translate(-4340.129 4547.214)">
		
			<rect id="Rectangle_86-10" x="203" y="1.787" transform="matrix(2.578893e-006 1 -1 2.578893e-006 208.7865 -201.213)" fill="#35E7B3" width="4" height="4"/>
		
			<rect id="Rectangle_87-10" x="189" y="1.787" transform="matrix(2.578893e-006 1 -1 2.578893e-006 194.7865 -187.213)" fill="#35E7B3" width="4" height="4"/>
		
			<rect id="Rectangle_88-10" x="174" y="1.787" transform="matrix(2.578893e-006 1 -1 2.578893e-006 179.7865 -172.213)" fill="#35E7B3" width="4" height="4"/>
		
			<rect id="Rectangle_89-10" x="159" y="1.787" transform="matrix(2.578893e-006 1 -1 2.578893e-006 164.7866 -157.213)" fill="#35E7B3" width="4" height="4"/>
		
			<rect id="Rectangle_90-10" x="144" y="1.787" transform="matrix(2.578893e-006 1 -1 2.578893e-006 149.7866 -142.213)" fill="#35E7B3" width="4" height="4"/>
		
			<rect id="Rectangle_91-10" x="129" y="1.787" transform="matrix(2.578893e-006 1 -1 2.578893e-006 134.7867 -127.213)" fill="#35E7B3" width="4" height="4"/>
		
			<rect id="Rectangle_92-10" x="114" y="1.787" transform="matrix(2.578893e-006 1 -1 2.578893e-006 119.7867 -112.213)" fill="#35E7B3" width="4" height="4"/>
		
			<rect id="Rectangle_93-10" x="99" y="1.787" transform="matrix(2.578893e-006 1 -1 2.578893e-006 104.7867 -97.213)" fill="#35E7B3" width="4" height="4"/>
		
			<rect id="Rectangle_94-10" x="85" y="1.787" transform="matrix(2.578893e-006 1 -1 2.578893e-006 90.7868 -83.213)" fill="#35E7B3" width="4" height="4"/>
		
			<rect id="Rectangle_95-10" x="70" y="1.787" transform="matrix(2.578893e-006 1 -1 2.578893e-006 75.7868 -68.213)" fill="#35E7B3" width="4" height="4"/>
		
			<rect id="Rectangle_96-10" x="55" y="1.787" transform="matrix(2.578893e-006 1 -1 2.578893e-006 60.7869 -53.213)" fill="#35E7B3" width="4" height="4"/>
		
			<rect id="Rectangle_97-10" x="40" y="1.787" transform="matrix(2.578893e-006 1 -1 2.578893e-006 45.7869 -38.213)" fill="#35E7B3" width="4" height="4"/>
		
			<rect id="Rectangle_98-10" x="25" y="1.787" transform="matrix(2.578893e-006 1 -1 2.578893e-006 30.7869 -23.213)" fill="#35E7B3" width="4" height="4"/>
		
			<rect id="Rectangle_99-10" x="10" y="1.787" transform="matrix(2.578893e-006 1 -1 2.578893e-006 15.787 -8.213)" fill="#35E7B3" width="4" height="4"/>
	</g>
	<g id="Groupe_109" transform="translate(-4340.129 4607.405)">
		
			<rect id="Rectangle_86-11" x="203" y="1.596" transform="matrix(2.578893e-006 1 -1 2.578893e-006 208.5955 -201.404)" fill="#35E7B3" width="4" height="4"/>
		
			<rect id="Rectangle_87-11" x="189" y="1.596" transform="matrix(2.578893e-006 1 -1 2.578893e-006 194.5955 -187.404)" fill="#35E7B3" width="4" height="4"/>
		
			<rect id="Rectangle_88-11" x="174" y="1.596" transform="matrix(2.578893e-006 1 -1 2.578893e-006 179.5956 -172.404)" fill="#35E7B3" width="4" height="4"/>
		
			<rect id="Rectangle_89-11" x="159" y="1.596" transform="matrix(2.578893e-006 1 -1 2.578893e-006 164.5956 -157.404)" fill="#35E7B3" width="4" height="4"/>
		
			<rect id="Rectangle_90-11" x="144" y="1.596" transform="matrix(2.578893e-006 1 -1 2.578893e-006 149.5956 -142.404)" fill="#35E7B3" width="4" height="4"/>
		
			<rect id="Rectangle_91-11" x="129" y="1.596" transform="matrix(2.578893e-006 1 -1 2.578893e-006 134.5957 -127.404)" fill="#35E7B3" width="4" height="4"/>
		
			<rect id="Rectangle_92-11" x="114" y="1.596" transform="matrix(2.578893e-006 1 -1 2.578893e-006 119.5957 -112.404)" fill="#35E7B3" width="4" height="4"/>
		
			<rect id="Rectangle_93-11" x="99" y="1.596" transform="matrix(2.578893e-006 1 -1 2.578893e-006 104.5957 -97.404)" fill="#35E7B3" width="4" height="4"/>
		
			<rect id="Rectangle_94-11" x="85" y="1.596" transform="matrix(2.578893e-006 1 -1 2.578893e-006 90.5958 -83.404)" fill="#35E7B3" width="4" height="4"/>
		
			<rect id="Rectangle_95-11" x="70" y="1.596" transform="matrix(2.578893e-006 1 -1 2.578893e-006 75.5958 -68.404)" fill="#35E7B3" width="4" height="4"/>
		
			<rect id="Rectangle_96-11" x="55" y="1.596" transform="matrix(2.578893e-006 1 -1 2.578893e-006 60.5959 -53.404)" fill="#35E7B3" width="4" height="4"/>
		
			<rect id="Rectangle_97-11" x="40" y="1.596" transform="matrix(2.578893e-006 1 -1 2.578893e-006 45.5959 -38.404)" fill="#35E7B3" width="4" height="4"/>
		
			<rect id="Rectangle_98-11" x="25" y="1.596" transform="matrix(2.578893e-006 1 -1 2.578893e-006 30.5959 -23.404)" fill="#35E7B3" width="4" height="4"/>
		
			<rect id="Rectangle_99-11" x="10" y="1.596" transform="matrix(2.578893e-006 1 -1 2.578893e-006 15.596 -8.404)" fill="#35E7B3" width="4" height="4"/>
	</g>
	<g id="Groupe_114" transform="translate(-4340.129 4667.596)">
		
			<rect id="Rectangle_86-12" x="203" y="2.405" transform="matrix(2.578893e-006 1 -1 2.578893e-006 209.4045 -200.595)" fill="#35E7B3" width="4" height="4"/>
		
			<rect id="Rectangle_87-12" x="189" y="2.405" transform="matrix(2.578893e-006 1 -1 2.578893e-006 195.4045 -186.595)" fill="#35E7B3" width="4" height="4"/>
		
			<rect id="Rectangle_88-12" x="174" y="2.405" transform="matrix(2.578893e-006 1 -1 2.578893e-006 180.4045 -171.595)" fill="#35E7B3" width="4" height="4"/>
		
			<rect id="Rectangle_89-12" x="159" y="2.405" transform="matrix(2.578893e-006 1 -1 2.578893e-006 165.4046 -156.595)" fill="#35E7B3" width="4" height="4"/>
		
			<rect id="Rectangle_90-12" x="144" y="2.405" transform="matrix(2.578893e-006 1 -1 2.578893e-006 150.4046 -141.595)" fill="#35E7B3" width="4" height="4"/>
		
			<rect id="Rectangle_91-12" x="129" y="2.405" transform="matrix(2.578893e-006 1 -1 2.578893e-006 135.4047 -126.595)" fill="#35E7B3" width="4" height="4"/>
		
			<rect id="Rectangle_92-12" x="114" y="2.405" transform="matrix(2.578893e-006 1 -1 2.578893e-006 120.4047 -111.595)" fill="#35E7B3" width="4" height="4"/>
		
			<rect id="Rectangle_93-12" x="99" y="2.405" transform="matrix(2.578893e-006 1 -1 2.578893e-006 105.4047 -96.595)" fill="#35E7B3" width="4" height="4"/>
		
			<rect id="Rectangle_94-12" x="85" y="2.405" transform="matrix(2.578893e-006 1 -1 2.578893e-006 91.4048 -82.595)" fill="#35E7B3" width="4" height="4"/>
		
			<rect id="Rectangle_95-12" x="70" y="2.405" transform="matrix(2.578893e-006 1 -1 2.578893e-006 76.4048 -67.595)" fill="#35E7B3" width="4" height="4"/>
		
			<rect id="Rectangle_96-12" x="55" y="2.405" transform="matrix(2.578893e-006 1 -1 2.578893e-006 61.4049 -52.595)" fill="#35E7B3" width="4" height="4"/>
		
			<rect id="Rectangle_97-12" x="40" y="2.405" transform="matrix(2.578893e-006 1 -1 2.578893e-006 46.4049 -37.595)" fill="#35E7B3" width="4" height="4"/>
		
			<rect id="Rectangle_98-12" x="25" y="2.405" transform="matrix(2.578893e-006 1 -1 2.578893e-006 31.4049 -22.595)" fill="#35E7B3" width="4" height="4"/>
		
			<rect id="Rectangle_99-12" x="10" y="2.405" transform="matrix(2.578893e-006 1 -1 2.578893e-006 16.405 -7.595)" fill="#35E7B3" width="4" height="4"/>
	</g>
	<g id="Groupe_100" transform="translate(-4340.129 4498.521)">
		
			<rect id="Rectangle_86-13" x="203" y="2.48" transform="matrix(2.578893e-006 1 -1 2.578893e-006 209.4795 -200.52)" fill="#35E7B3" width="4" height="4"/>
		
			<rect id="Rectangle_87-13" x="189" y="2.48" transform="matrix(2.578893e-006 1 -1 2.578893e-006 195.4795 -186.52)" fill="#35E7B3" width="4" height="4"/>
		
			<rect id="Rectangle_88-13" x="174" y="2.48" transform="matrix(2.578893e-006 1 -1 2.578893e-006 180.4796 -171.52)" fill="#35E7B3" width="4" height="4"/>
		
			<rect id="Rectangle_89-13" x="159" y="2.48" transform="matrix(2.578893e-006 1 -1 2.578893e-006 165.4796 -156.52)" fill="#35E7B3" width="4" height="4"/>
		
			<rect id="Rectangle_90-13" x="144" y="2.48" transform="matrix(2.578893e-006 1 -1 2.578893e-006 150.4796 -141.52)" fill="#35E7B3" width="4" height="4"/>
		
			<rect id="Rectangle_91-13" x="129" y="2.48" transform="matrix(2.578893e-006 1 -1 2.578893e-006 135.4797 -126.52)" fill="#35E7B3" width="4" height="4"/>
		
			<rect id="Rectangle_92-13" x="114" y="2.48" transform="matrix(2.578893e-006 1 -1 2.578893e-006 120.4797 -111.52)" fill="#35E7B3" width="4" height="4"/>
		
			<rect id="Rectangle_93-13" x="99" y="2.48" transform="matrix(2.578893e-006 1 -1 2.578893e-006 105.4797 -96.52)" fill="#35E7B3" width="4" height="4"/>
		
			<rect id="Rectangle_94-13" x="85" y="2.48" transform="matrix(2.578893e-006 1 -1 2.578893e-006 91.4798 -82.52)" fill="#35E7B3" width="4" height="4"/>
		
			<rect id="Rectangle_95-13" x="70" y="2.48" transform="matrix(2.578893e-006 1 -1 2.578893e-006 76.4798 -67.52)" fill="#35E7B3" width="4" height="4"/>
		
			<rect id="Rectangle_96-13" x="55" y="2.48" transform="matrix(2.578893e-006 1 -1 2.578893e-006 61.4799 -52.52)" fill="#35E7B3" width="4" height="4"/>
		
			<rect id="Rectangle_97-13" x="40" y="2.48" transform="matrix(2.578893e-006 1 -1 2.578893e-006 46.4799 -37.52)" fill="#35E7B3" width="4" height="4"/>
		
			<rect id="Rectangle_98-13" x="25" y="2.48" transform="matrix(2.578893e-006 1 -1 2.578893e-006 31.4799 -22.52)" fill="#35E7B3" width="4" height="4"/>
		
			<rect id="Rectangle_99-13" x="10" y="2.48" transform="matrix(2.578893e-006 1 -1 2.578893e-006 16.48 -7.52)" fill="#35E7B3" width="4" height="4"/>
	</g>
	<g id="Groupe_103" transform="translate(-4340.129 4558.711)">
		
			<rect id="Rectangle_86-14" x="203" y="2.289" transform="matrix(2.578893e-006 1 -1 2.578893e-006 209.2885 -200.711)" fill="#35E7B3" width="4" height="4"/>
		
			<rect id="Rectangle_87-14" x="189" y="2.289" transform="matrix(2.578893e-006 1 -1 2.578893e-006 195.2885 -186.711)" fill="#35E7B3" width="4" height="4"/>
		
			<rect id="Rectangle_88-14" x="174" y="2.289" transform="matrix(2.578893e-006 1 -1 2.578893e-006 180.2885 -171.711)" fill="#35E7B3" width="4" height="4"/>
		
			<rect id="Rectangle_89-14" x="159" y="2.289" transform="matrix(2.578893e-006 1 -1 2.578893e-006 165.2886 -156.711)" fill="#35E7B3" width="4" height="4"/>
		
			<rect id="Rectangle_90-14" x="144" y="2.289" transform="matrix(2.578893e-006 1 -1 2.578893e-006 150.2886 -141.711)" fill="#35E7B3" width="4" height="4"/>
		
			<rect id="Rectangle_91-14" x="129" y="2.289" transform="matrix(2.578893e-006 1 -1 2.578893e-006 135.2887 -126.711)" fill="#35E7B3" width="4" height="4"/>
		
			<rect id="Rectangle_92-14" x="114" y="2.289" transform="matrix(2.578893e-006 1 -1 2.578893e-006 120.2887 -111.711)" fill="#35E7B3" width="4" height="4"/>
		
			<rect id="Rectangle_93-14" x="99" y="2.289" transform="matrix(2.578893e-006 1 -1 2.578893e-006 105.2887 -96.711)" fill="#35E7B3" width="4" height="4"/>
		
			<rect id="Rectangle_94-14" x="85" y="2.289" transform="matrix(2.578893e-006 1 -1 2.578893e-006 91.2888 -82.711)" fill="#35E7B3" width="4" height="4"/>
		
			<rect id="Rectangle_95-14" x="70" y="2.289" transform="matrix(2.578893e-006 1 -1 2.578893e-006 76.2888 -67.711)" fill="#35E7B3" width="4" height="4"/>
		
			<rect id="Rectangle_96-14" x="55" y="2.289" transform="matrix(2.578893e-006 1 -1 2.578893e-006 61.2889 -52.711)" fill="#35E7B3" width="4" height="4"/>
		
			<rect id="Rectangle_97-14" x="40" y="2.289" transform="matrix(2.578893e-006 1 -1 2.578893e-006 46.2889 -37.711)" fill="#35E7B3" width="4" height="4"/>
		
			<rect id="Rectangle_98-14" x="25" y="2.289" transform="matrix(2.578893e-006 1 -1 2.578893e-006 31.2889 -22.711)" fill="#35E7B3" width="4" height="4"/>
		
			<rect id="Rectangle_99-14" x="10" y="2.289" transform="matrix(2.578893e-006 1 -1 2.578893e-006 16.289 -7.711)" fill="#35E7B3" width="4" height="4"/>
	</g>
	<g id="Groupe_108" transform="translate(-4340.129 4619.578)">
		
			<rect id="Rectangle_86-15" x="203.5" y="1.922" transform="matrix(2.578893e-006 1 -1 2.578893e-006 208.9215 -201.078)" fill="#35E7B3" width="3" height="4"/>
		
			<rect id="Rectangle_87-15" x="189.5" y="1.922" transform="matrix(2.578893e-006 1 -1 2.578893e-006 194.9215 -187.078)" fill="#35E7B3" width="3" height="4"/>
		
			<rect id="Rectangle_88-15" x="174.5" y="1.922" transform="matrix(2.578893e-006 1 -1 2.578893e-006 179.9215 -172.078)" fill="#35E7B3" width="3" height="4"/>
		
			<rect id="Rectangle_89-15" x="159.5" y="1.922" transform="matrix(2.578893e-006 1 -1 2.578893e-006 164.9216 -157.078)" fill="#35E7B3" width="3" height="4"/>
		
			<rect id="Rectangle_90-15" x="144.5" y="1.922" transform="matrix(2.578893e-006 1 -1 2.578893e-006 149.9216 -142.078)" fill="#35E7B3" width="3" height="4"/>
		
			<rect id="Rectangle_91-15" x="129.5" y="1.922" transform="matrix(2.578893e-006 1 -1 2.578893e-006 134.9217 -127.078)" fill="#35E7B3" width="3" height="4"/>
		
			<rect id="Rectangle_92-15" x="114.5" y="1.922" transform="matrix(2.578893e-006 1 -1 2.578893e-006 119.9217 -112.078)" fill="#35E7B3" width="3" height="4"/>
		
			<rect id="Rectangle_93-15" x="99.5" y="1.922" transform="matrix(2.578893e-006 1 -1 2.578893e-006 104.9217 -97.078)" fill="#35E7B3" width="3" height="4"/>
		
			<rect id="Rectangle_94-15" x="85.5" y="1.922" transform="matrix(2.578893e-006 1 -1 2.578893e-006 90.9218 -83.078)" fill="#35E7B3" width="3" height="4"/>
		
			<rect id="Rectangle_95-15" x="70.5" y="1.922" transform="matrix(2.578893e-006 1 -1 2.578893e-006 75.9218 -68.078)" fill="#35E7B3" width="3" height="4"/>
		
			<rect id="Rectangle_96-15" x="55.5" y="1.922" transform="matrix(2.578893e-006 1 -1 2.578893e-006 60.9218 -53.078)" fill="#35E7B3" width="3" height="4"/>
		
			<rect id="Rectangle_97-15" x="40.5" y="1.922" transform="matrix(2.578893e-006 1 -1 2.578893e-006 45.9219 -38.078)" fill="#35E7B3" width="3" height="4"/>
		
			<rect id="Rectangle_98-15" x="25.5" y="1.922" transform="matrix(2.578893e-006 1 -1 2.578893e-006 30.9219 -23.078)" fill="#35E7B3" width="3" height="4"/>
		
			<rect id="Rectangle_99-15" x="10.5" y="1.922" transform="matrix(2.578893e-006 1 -1 2.578893e-006 15.922 -8.078)" fill="#35E7B3" width="3" height="4"/>
	</g>
	<g id="Groupe_113" transform="translate(-4340.129 4680.445)">
		
			<rect id="Rectangle_86-16" x="203" y="1.555" transform="matrix(2.578893e-006 1 -1 2.578893e-006 208.5545 -201.445)" fill="#35E7B3" width="4" height="4"/>
		
			<rect id="Rectangle_87-16" x="189" y="1.555" transform="matrix(2.578893e-006 1 -1 2.578893e-006 194.5545 -187.445)" fill="#35E7B3" width="4" height="4"/>
		
			<rect id="Rectangle_88-16" x="174" y="1.555" transform="matrix(2.578893e-006 1 -1 2.578893e-006 179.5545 -172.445)" fill="#35E7B3" width="4" height="4"/>
		
			<rect id="Rectangle_89-16" x="159" y="1.555" transform="matrix(2.578893e-006 1 -1 2.578893e-006 164.5546 -157.445)" fill="#35E7B3" width="4" height="4"/>
		
			<rect id="Rectangle_90-16" x="144" y="1.555" transform="matrix(2.578893e-006 1 -1 2.578893e-006 149.5546 -142.445)" fill="#35E7B3" width="4" height="4"/>
		
			<rect id="Rectangle_91-16" x="129" y="1.555" transform="matrix(2.578893e-006 1 -1 2.578893e-006 134.5547 -127.445)" fill="#35E7B3" width="4" height="4"/>
		
			<rect id="Rectangle_92-16" x="114" y="1.555" transform="matrix(2.578893e-006 1 -1 2.578893e-006 119.5547 -112.445)" fill="#35E7B3" width="4" height="4"/>
		
			<rect id="Rectangle_93-16" x="99" y="1.555" transform="matrix(2.578893e-006 1 -1 2.578893e-006 104.5547 -97.445)" fill="#35E7B3" width="4" height="4"/>
		
			<rect id="Rectangle_94-16" x="85" y="1.555" transform="matrix(2.578893e-006 1 -1 2.578893e-006 90.5548 -83.445)" fill="#35E7B3" width="4" height="4"/>
		
			<rect id="Rectangle_95-16" x="70" y="1.555" transform="matrix(2.578893e-006 1 -1 2.578893e-006 75.5548 -68.445)" fill="#35E7B3" width="4" height="4"/>
		
			<rect id="Rectangle_96-16" x="55" y="1.555" transform="matrix(2.578893e-006 1 -1 2.578893e-006 60.5548 -53.445)" fill="#35E7B3" width="4" height="4"/>
		
			<rect id="Rectangle_97-16" x="40" y="1.555" transform="matrix(2.578893e-006 1 -1 2.578893e-006 45.5549 -38.445)" fill="#35E7B3" width="4" height="4"/>
		
			<rect id="Rectangle_98-16" x="25" y="1.555" transform="matrix(2.578893e-006 1 -1 2.578893e-006 30.5549 -23.445)" fill="#35E7B3" width="4" height="4"/>
		
			<rect id="Rectangle_99-16" x="10" y="1.555" transform="matrix(2.578893e-006 1 -1 2.578893e-006 15.555 -8.445)" fill="#35E7B3" width="4" height="4"/>
	</g>
	<g id="Groupe_101" transform="translate(-4340.129 4510.694)">
		
			<rect id="Rectangle_86-17" x="203.5" y="1.807" transform="matrix(2.578893e-006 1 -1 2.578893e-006 208.8065 -201.193)" fill="#35E7B3" width="3" height="4"/>
		
			<rect id="Rectangle_87-17" x="189.5" y="1.807" transform="matrix(2.578893e-006 1 -1 2.578893e-006 194.8065 -187.193)" fill="#35E7B3" width="3" height="4"/>
		
			<rect id="Rectangle_88-17" x="174.5" y="1.807" transform="matrix(2.578893e-006 1 -1 2.578893e-006 179.8065 -172.193)" fill="#35E7B3" width="3" height="4"/>
		
			<rect id="Rectangle_89-17" x="159.5" y="1.807" transform="matrix(2.578893e-006 1 -1 2.578893e-006 164.8066 -157.193)" fill="#35E7B3" width="3" height="4"/>
		
			<rect id="Rectangle_90-17" x="144.5" y="1.807" transform="matrix(2.578893e-006 1 -1 2.578893e-006 149.8066 -142.193)" fill="#35E7B3" width="3" height="4"/>
		
			<rect id="Rectangle_91-17" x="129.5" y="1.807" transform="matrix(2.578893e-006 1 -1 2.578893e-006 134.8067 -127.193)" fill="#35E7B3" width="3" height="4"/>
		
			<rect id="Rectangle_92-17" x="114.5" y="1.807" transform="matrix(2.578893e-006 1 -1 2.578893e-006 119.8067 -112.193)" fill="#35E7B3" width="3" height="4"/>
		
			<rect id="Rectangle_93-17" x="99.5" y="1.807" transform="matrix(2.578893e-006 1 -1 2.578893e-006 104.8067 -97.193)" fill="#35E7B3" width="3" height="4"/>
		
			<rect id="Rectangle_94-17" x="85.5" y="1.807" transform="matrix(2.578893e-006 1 -1 2.578893e-006 90.8068 -83.193)" fill="#35E7B3" width="3" height="4"/>
		
			<rect id="Rectangle_95-17" x="70.5" y="1.807" transform="matrix(2.578893e-006 1 -1 2.578893e-006 75.8068 -68.193)" fill="#35E7B3" width="3" height="4"/>
		
			<rect id="Rectangle_96-17" x="55.5" y="1.807" transform="matrix(2.578893e-006 1 -1 2.578893e-006 60.8069 -53.193)" fill="#35E7B3" width="3" height="4"/>
		
			<rect id="Rectangle_97-17" x="40.5" y="1.807" transform="matrix(2.578893e-006 1 -1 2.578893e-006 45.8069 -38.193)" fill="#35E7B3" width="3" height="4"/>
		
			<rect id="Rectangle_98-17" x="25.5" y="1.807" transform="matrix(2.578893e-006 1 -1 2.578893e-006 30.8069 -23.193)" fill="#35E7B3" width="3" height="4"/>
		
			<rect id="Rectangle_99-17" x="10.5" y="1.807" transform="matrix(2.578893e-006 1 -1 2.578893e-006 15.807 -8.193)" fill="#35E7B3" width="3" height="4"/>
	</g>
	<g id="Groupe_102" transform="translate(-4340.129 4571.561)">
		
			<rect id="Rectangle_86-18" x="203.5" y="1.939" transform="matrix(2.578893e-006 1 -1 2.578893e-006 208.9385 -201.061)" fill="#35E7B3" width="3" height="4"/>
		
			<rect id="Rectangle_87-18" x="189.5" y="1.939" transform="matrix(2.578893e-006 1 -1 2.578893e-006 194.9385 -187.061)" fill="#35E7B3" width="3" height="4"/>
		
			<rect id="Rectangle_88-18" x="174.5" y="1.939" transform="matrix(2.578893e-006 1 -1 2.578893e-006 179.9386 -172.061)" fill="#35E7B3" width="3" height="4"/>
		
			<rect id="Rectangle_89-18" x="159.5" y="1.939" transform="matrix(2.578893e-006 1 -1 2.578893e-006 164.9386 -157.061)" fill="#35E7B3" width="3" height="4"/>
		
			<rect id="Rectangle_90-18" x="144.5" y="1.939" transform="matrix(2.578893e-006 1 -1 2.578893e-006 149.9386 -142.061)" fill="#35E7B3" width="3" height="4"/>
		
			<rect id="Rectangle_91-18" x="129.5" y="1.939" transform="matrix(2.578893e-006 1 -1 2.578893e-006 134.9387 -127.061)" fill="#35E7B3" width="3" height="4"/>
		
			<rect id="Rectangle_92-18" x="114.5" y="1.939" transform="matrix(2.578893e-006 1 -1 2.578893e-006 119.9387 -112.061)" fill="#35E7B3" width="3" height="4"/>
		
			<rect id="Rectangle_93-18" x="99.5" y="1.939" transform="matrix(2.578893e-006 1 -1 2.578893e-006 104.9387 -97.061)" fill="#35E7B3" width="3" height="4"/>
		
			<rect id="Rectangle_94-18" x="85.5" y="1.939" transform="matrix(2.578893e-006 1 -1 2.578893e-006 90.9388 -83.061)" fill="#35E7B3" width="3" height="4"/>
		
			<rect id="Rectangle_95-18" x="70.5" y="1.939" transform="matrix(2.578893e-006 1 -1 2.578893e-006 75.9388 -68.061)" fill="#35E7B3" width="3" height="4"/>
		
			<rect id="Rectangle_96-18" x="55.5" y="1.939" transform="matrix(2.578893e-006 1 -1 2.578893e-006 60.9389 -53.061)" fill="#35E7B3" width="3" height="4"/>
		
			<rect id="Rectangle_97-18" x="40.5" y="1.939" transform="matrix(2.578893e-006 1 -1 2.578893e-006 45.9389 -38.061)" fill="#35E7B3" width="3" height="4"/>
		
			<rect id="Rectangle_98-18" x="25.5" y="1.939" transform="matrix(2.578893e-006 1 -1 2.578893e-006 30.9389 -23.061)" fill="#35E7B3" width="3" height="4"/>
		
			<rect id="Rectangle_99-18" x="10.5" y="1.939" transform="matrix(2.578893e-006 1 -1 2.578893e-006 15.939 -8.061)" fill="#35E7B3" width="3" height="4"/>
	</g>
	<g id="Groupe_107" transform="translate(-4340.129 4631.752)">
		
			<rect id="Rectangle_86-19" x="203" y="2.249" transform="matrix(2.578893e-006 1 -1 2.578893e-006 209.2485 -200.751)" fill="#35E7B3" width="4" height="4"/>
		
			<rect id="Rectangle_87-19" x="189" y="2.249" transform="matrix(2.578893e-006 1 -1 2.578893e-006 195.2485 -186.751)" fill="#35E7B3" width="4" height="4"/>
		
			<rect id="Rectangle_88-19" x="174" y="2.249" transform="matrix(2.578893e-006 1 -1 2.578893e-006 180.2486 -171.751)" fill="#35E7B3" width="4" height="4"/>
		
			<rect id="Rectangle_89-19" x="159" y="2.249" transform="matrix(2.578893e-006 1 -1 2.578893e-006 165.2486 -156.751)" fill="#35E7B3" width="4" height="4"/>
		
			<rect id="Rectangle_90-19" x="144" y="2.249" transform="matrix(2.578893e-006 1 -1 2.578893e-006 150.2486 -141.751)" fill="#35E7B3" width="4" height="4"/>
		
			<rect id="Rectangle_91-19" x="129" y="2.249" transform="matrix(2.578893e-006 1 -1 2.578893e-006 135.2487 -126.751)" fill="#35E7B3" width="4" height="4"/>
		
			<rect id="Rectangle_92-19" x="114" y="2.249" transform="matrix(2.578893e-006 1 -1 2.578893e-006 120.2487 -111.751)" fill="#35E7B3" width="4" height="4"/>
		
			<rect id="Rectangle_93-19" x="99" y="2.249" transform="matrix(2.578893e-006 1 -1 2.578893e-006 105.2487 -96.751)" fill="#35E7B3" width="4" height="4"/>
		
			<rect id="Rectangle_94-19" x="85" y="2.249" transform="matrix(2.578893e-006 1 -1 2.578893e-006 91.2488 -82.751)" fill="#35E7B3" width="4" height="4"/>
		
			<rect id="Rectangle_95-19" x="70" y="2.249" transform="matrix(2.578893e-006 1 -1 2.578893e-006 76.2488 -67.751)" fill="#35E7B3" width="4" height="4"/>
		
			<rect id="Rectangle_96-19" x="55" y="2.249" transform="matrix(2.578893e-006 1 -1 2.578893e-006 61.2489 -52.751)" fill="#35E7B3" width="4" height="4"/>
		
			<rect id="Rectangle_97-19" x="40" y="2.249" transform="matrix(2.578893e-006 1 -1 2.578893e-006 46.2489 -37.751)" fill="#35E7B3" width="4" height="4"/>
		
			<rect id="Rectangle_98-19" x="25" y="2.249" transform="matrix(2.578893e-006 1 -1 2.578893e-006 31.2489 -22.751)" fill="#35E7B3" width="4" height="4"/>
		
			<rect id="Rectangle_99-19" x="10" y="2.249" transform="matrix(2.578893e-006 1 -1 2.578893e-006 16.249 -7.751)" fill="#35E7B3" width="4" height="4"/>
	</g>
	<g id="Groupe_112" transform="translate(-4340.129 4691.943)">
		
			<rect id="Rectangle_86-20" x="203" y="2.058" transform="matrix(2.578893e-006 1 -1 2.578893e-006 209.0575 -200.942)" fill="#35E7B3" width="4" height="4"/>
		
			<rect id="Rectangle_87-20" x="189" y="2.058" transform="matrix(2.578893e-006 1 -1 2.578893e-006 195.0575 -186.942)" fill="#35E7B3" width="4" height="4"/>
		
			<rect id="Rectangle_88-20" x="174" y="2.058" transform="matrix(2.578893e-006 1 -1 2.578893e-006 180.0575 -171.942)" fill="#35E7B3" width="4" height="4"/>
		
			<rect id="Rectangle_89-20" x="159" y="2.058" transform="matrix(2.578893e-006 1 -1 2.578893e-006 165.0576 -156.942)" fill="#35E7B3" width="4" height="4"/>
		
			<rect id="Rectangle_90-20" x="144" y="2.058" transform="matrix(2.578893e-006 1 -1 2.578893e-006 150.0576 -141.942)" fill="#35E7B3" width="4" height="4"/>
		
			<rect id="Rectangle_91-20" x="129" y="2.058" transform="matrix(2.578893e-006 1 -1 2.578893e-006 135.0577 -126.942)" fill="#35E7B3" width="4" height="4"/>
		
			<rect id="Rectangle_92-20" x="114" y="2.058" transform="matrix(2.578893e-006 1 -1 2.578893e-006 120.0577 -111.942)" fill="#35E7B3" width="4" height="4"/>
		
			<rect id="Rectangle_93-20" x="99" y="2.058" transform="matrix(2.578893e-006 1 -1 2.578893e-006 105.0577 -96.942)" fill="#35E7B3" width="4" height="4"/>
		
			<rect id="Rectangle_94-20" x="85" y="2.058" transform="matrix(2.578893e-006 1 -1 2.578893e-006 91.0578 -82.942)" fill="#35E7B3" width="4" height="4"/>
		
			<rect id="Rectangle_95-20" x="70" y="2.058" transform="matrix(2.578893e-006 1 -1 2.578893e-006 76.0578 -67.942)" fill="#35E7B3" width="4" height="4"/>
		
			<rect id="Rectangle_96-20" x="55" y="2.058" transform="matrix(2.578893e-006 1 -1 2.578893e-006 61.0578 -52.942)" fill="#35E7B3" width="4" height="4"/>
		
			<rect id="Rectangle_97-20" x="40" y="2.058" transform="matrix(2.578893e-006 1 -1 2.578893e-006 46.0579 -37.942)" fill="#35E7B3" width="4" height="4"/>
		
			<rect id="Rectangle_98-20" x="25" y="2.058" transform="matrix(2.578893e-006 1 -1 2.578893e-006 31.0579 -22.942)" fill="#35E7B3" width="4" height="4"/>
		
			<rect id="Rectangle_99-20" x="10" y="2.058" transform="matrix(2.578893e-006 1 -1 2.578893e-006 16.058 -7.942)" fill="#35E7B3" width="4" height="4"/>
	</g>
</g>
<path id="Background" opacity="0.7" fill="#F7F9FC" d="M0,960c0,0,239.928-129.729,479.893-129.729C719.928,830.271,960,960,960,960
	V0H0V960z"/>
<g>
	<defs>
		<path id="SVGID_1_" d="M736.175,96.909L736.175,96.909c26.521-17.889,62.522-10.891,80.41,15.63l50.384,74.698
			c17.889,26.521,10.891,62.522-15.63,80.41l0,0c-26.521,17.889-62.522,10.891-80.411-15.63l-50.384-74.698
			C702.657,150.798,709.654,114.797,736.175,96.909z"/>
	</defs>
	<clipPath id="SVGID_2_">
		<use xlink:href="#SVGID_1_"  overflow="visible"/>
	</clipPath>
	<g id="Groupe_de_masques_4" transform="translate(0 0)" opacity="0.5" clip-path="url(#SVGID_2_)">
		<path id="Tracé_12482" fill="#453ECC" d="M824.281,195.537c29.661,0,53.705-24.045,53.705-53.705s-24.045-53.705-53.705-53.705
			c-29.66,0-53.704,24.044-53.705,53.704c-0.001,29.661,24.043,53.706,53.704,53.707C824.28,195.537,824.28,195.537,824.281,195.537
			z"/>
	</g>
</g>
</svg>
