<?xml version="1.0" encoding="utf-8"?>
<!-- Generator: Adobe Illustrator 25.0.1, SVG Export Plug-In . SVG Version: 6.00 Build 0)  -->
<svg version="1.1" id="Layer_1" xmlns="http://www.w3.org/2000/svg" xmlns:xlink="http://www.w3.org/1999/xlink" x="0px" y="0px"
	 viewBox="0 0 960 637" style="enable-background:new 0 0 960 637;" xml:space="preserve">
<style type="text/css">
	.st0{clip-path:url(#SVGID_2_);}
	.st1{fill:#35E7B3;}
	.st2{filter:url(#Adobe_OpacityMaskFilter);}
	.st3{opacity:0.75;mask:url(#SVGID_3_);}
	.st4{fill:#FFFFFF;}
	.st5{clip-path:url(#SVGID_2_);fill:url(#Tracé_2_1_);stroke:#707070;}
	.st6{clip-path:url(#SVGID_2_);fill:url(#Tracé_3_1_);}
</style>
<g>
	<defs>
		<rect id="SVGID_1_" width="960" height="637"/>
	</defs>
	<clipPath id="SVGID_2_">
		<use xlink:href="#SVGID_1_"  style="overflow:visible;"/>
	</clipPath>
	<g id="Tracé_1" class="st0">
		<g>
			<path class="st1" d="M-40.1,512.2c11.2-4.8,22.5-119.3,253.1-60.8s320.5,50.9,452.7,20.4s205.3,19.7,233.4,40.4
				c28.1,20.7,101.2,102.1,101.2,102.1V-47.5H-40.1V512.2z"/>
		</g>
		<defs>
			<filter id="Adobe_OpacityMaskFilter" filterUnits="userSpaceOnUse" x="-40.1" y="-47.5" width="1040.4" height="661.8">
				
					<feColorMatrix  type="matrix" values="-1 0 0 0 1  0 -1 0 0 1  0 0 -1 0 1  0 0 0 1 0" color-interpolation-filters="sRGB" result="source"/>
			</filter>
		</defs>
		<mask maskUnits="userSpaceOnUse" x="-40.1" y="-47.5" width="1040.4" height="661.8" id="SVGID_3_">
			<g class="st2">
				<image style="overflow:visible;" width="1046" height="667" xlink:href="6139D0B9.jpg"  transform="matrix(1 0 0 1 -43 -50)">
				</image>
			</g>
		</mask>
		<g class="st3">
			<path class="st4" d="M-40.1,512.2c11.2-4.8,22.5-119.3,253.1-60.8s320.5,50.9,452.7,20.4s205.3,19.7,233.4,40.4
				c28.1,20.7,101.2,102.1,101.2,102.1V-47.5H-40.1V512.2z"/>
		</g>
	</g>
	
		<linearGradient id="Tracé_2_1_" gradientUnits="userSpaceOnUse" x1="-478.0396" y1="858.6661" x2="-478.0396" y2="857.6661" gradientTransform="matrix(1040.366 0 0 -661.769 497816.2188 568183.875)">
		<stop  offset="0" style="stop-color:#838DEF"/>
		<stop  offset="1" style="stop-color:#453ECC"/>
	</linearGradient>
	<path id="Tracé_2" class="st5" d="M-40.1,504.9c11.2-4.8,22.5-119.3,253.1-60.8s320.5,50.9,452.7,20.4s205.3,19.7,233.4,40.4
		c28.1,20.7,101.2,102.1,101.2,102.1V-54.7H-40.1V504.9z"/>
	
		<linearGradient id="Tracé_3_1_" gradientUnits="userSpaceOnUse" x1="-478.0396" y1="858.6661" x2="-478.0396" y2="857.6661" gradientTransform="matrix(1040.366 0 0 -661.769 497816.2188 568144.4375)">
		<stop  offset="0" style="stop-color:#838DEF"/>
		<stop  offset="1" style="stop-color:#453ECC"/>
	</linearGradient>
	<path id="Tracé_3" class="st6" d="M-40.1,465.5c11.2-4.8,22.5-119.3,253.1-60.8s320.5,50.9,452.7,20.4s205.3,19.7,233.4,40.4
		s101.2,102.1,101.2,102.1V-94.2H-40.1V465.5z"/>
</g>
</svg>
